<?xml version="1.0" encoding="UTF-8"?>
<!-- Generator: visioncortex VTracer 0.6.3 -->
<svg version="1.1" xmlns="http://www.w3.org/2000/svg" width="1280" height="1280">
<path d="M0 0 C422.4 0 844.8 0 1280 0 C1280 422.4 1280 844.8 1280 1280 C857.6 1280 435.2 1280 0 1280 C0 857.6 0 435.2 0 0 Z " fill="#1B172E" transform="translate(0,0)"/>
<path d="M0 0 C10.93 10.42 17.05 24.14 17.5 39.2 C17.31 52.95 11.52 64.87 2.38 74.94 C-6.55 83.35 -17.85 88.27 -30.08 88.42 C-37.9 89.83 -43.57 97.52 -48.88 102.89 C-49.91 103.92 -50.93 104.94 -51.95 105.97 C-54.14 108.17 -56.33 110.37 -58.52 112.57 C-61.98 116.06 -65.44 119.53 -68.91 123.01 C-76.26 130.38 -83.6 137.76 -90.94 145.14 C-98.88 153.12 -106.81 161.1 -114.76 169.07 C-118.21 172.53 -121.65 175.99 -125.09 179.46 C-127.23 181.61 -129.37 183.75 -131.51 185.9 C-132.5 186.9 -133.49 187.9 -134.48 188.9 C-135.83 190.26 -137.18 191.61 -138.54 192.97 C-139.3 193.73 -140.05 194.49 -140.83 195.28 C-142.69 196.89 -142.69 196.89 -144.69 196.89 C-145.03 199.39 -145.36 201.89 -145.69 204.39 C-145.78 205.07 -145.88 205.74 -145.98 206.44 C-146.29 208.92 -146.48 211.4 -146.69 213.89 C-146.88 215.67 -146.88 215.67 -147.08 217.49 C-147.57 225.04 -147.61 229.9 -142.55 235.95 C-140.62 237.93 -138.69 239.82 -136.68 241.71 C-135.6 242.79 -134.53 243.86 -133.46 244.94 C-130.57 247.84 -127.63 250.68 -124.68 253.52 C-121.59 256.51 -118.56 259.54 -115.51 262.56 C-109.75 268.27 -103.95 273.94 -98.14 279.59 C-91.52 286.03 -84.94 292.52 -78.37 299.01 C-64.86 312.36 -51.29 325.64 -37.69 338.89 C-41.71 338.89 -45.16 337.57 -48.95 336.32 C-49.78 336.05 -50.62 335.77 -51.49 335.49 C-54.26 334.59 -57.04 333.68 -59.81 332.77 C-61.75 332.13 -63.68 331.5 -65.62 330.87 C-84.55 324.66 -103.42 318.26 -122.24 311.73 C-124.88 310.83 -127.51 309.93 -130.15 309.03 C-131.95 308.41 -133.76 307.79 -135.57 307.17 C-136.4 306.88 -137.24 306.6 -138.11 306.31 C-142.24 304.88 -146.13 303.51 -149.69 300.89 C-149.69 300.23 -149.69 299.57 -149.69 298.89 C-150.35 298.89 -151.01 298.89 -151.69 298.89 C-151.51 299.78 -151.33 300.66 -151.15 301.58 C-144.03 352.43 -166.05 416.24 -181.88 464.08 C-182.27 465.26 -182.66 466.45 -183.06 467.67 C-185.5 474.86 -188.27 481.8 -191.33 488.73 C-192.62 491.74 -193.77 494.75 -194.88 497.83 C-198.76 508.15 -203.85 517.99 -208.69 527.89 C-208.03 527.89 -207.37 527.89 -206.69 527.89 C-205.24 529.36 -205.24 529.36 -203.55 531.39 C-199.84 535.75 -195.91 539.81 -191.86 543.85 C-191.11 544.6 -190.36 545.35 -189.59 546.12 C-187.14 548.58 -184.68 551.03 -182.22 553.49 C-180.5 555.21 -178.78 556.93 -177.06 558.65 C-173.47 562.25 -169.87 565.84 -166.27 569.43 C-161.68 574.03 -157.08 578.62 -152.49 583.22 C-148.94 586.77 -145.39 590.32 -141.84 593.87 C-140.15 595.56 -138.46 597.26 -136.76 598.95 C-134.39 601.32 -132.02 603.69 -129.64 606.06 C-128.96 606.75 -128.27 607.45 -127.56 608.16 C-123.66 612.03 -119.66 615.71 -115.51 619.3 C-113.1 621.4 -110.83 623.62 -108.58 625.87 C-107.66 626.79 -106.74 627.7 -105.79 628.64 C-104.82 629.62 -103.85 630.6 -102.87 631.57 C-101.85 632.6 -100.82 633.62 -99.79 634.65 C-97.66 636.78 -95.52 638.92 -93.39 641.06 C-90.67 643.78 -87.95 646.5 -85.23 649.21 C-83.12 651.32 -81 653.44 -78.89 655.55 C-77.89 656.55 -76.89 657.55 -75.89 658.55 C-70.86 663.57 -65.96 668.63 -61.33 674.02 C-58.45 677.29 -55.37 680.35 -52.29 683.43 C-51.6 684.11 -50.92 684.79 -50.22 685.49 C-48.79 686.92 -47.36 688.35 -45.93 689.78 C-43.76 691.95 -41.59 694.12 -39.42 696.29 C-38.02 697.69 -36.62 699.09 -35.22 700.49 C-34.59 701.13 -33.95 701.77 -33.29 702.42 C-30.14 705.56 -26.94 708.55 -23.53 711.42 C-16.4 717.65 -13.94 722.93 -12.51 732.26 C-12.34 733.28 -12.17 734.29 -11.99 735.34 C-11.44 738.67 -10.91 742 -10.38 745.33 C-9.99 747.64 -9.61 749.95 -9.22 752.26 C-8.43 757.05 -7.65 761.84 -6.87 766.64 C-5.72 773.74 -4.53 780.84 -3.33 787.93 C-1.92 796.3 -0.51 804.66 0.88 813.02 C1.1 814.34 1.1 814.34 1.32 815.67 C2.31 821.66 2.31 821.66 2.31 823.89 C-9.07 824.48 -19.79 822.67 -30.96 820.75 C-32.9 820.42 -34.84 820.1 -36.77 819.77 C-40.81 819.09 -44.85 818.4 -48.88 817.7 C-54.04 816.81 -59.2 815.95 -64.36 815.09 C-68.36 814.42 -72.35 813.74 -76.34 813.05 C-78.24 812.73 -80.14 812.41 -82.05 812.09 C-84.71 811.65 -87.36 811.19 -90.02 810.72 C-91.19 810.53 -91.19 810.53 -92.38 810.34 C-99.97 808.97 -105.28 805.73 -110.69 800.14 C-111.47 799.34 -112.25 798.54 -113.06 797.72 C-114.99 795.64 -116.83 793.56 -118.67 791.41 C-123.42 785.97 -128.53 780.91 -133.64 775.81 C-134.73 774.72 -135.82 773.63 -136.91 772.53 C-139.85 769.58 -142.8 766.64 -145.75 763.69 C-148.85 760.6 -151.94 757.5 -155.04 754.41 C-160.23 749.21 -165.43 744.01 -170.63 738.82 C-176.62 732.83 -182.61 726.84 -188.6 720.84 C-193.76 715.68 -198.92 710.52 -204.09 705.36 C-207.16 702.28 -210.24 699.21 -213.31 696.13 C-216.2 693.23 -219.1 690.34 -221.99 687.45 C-223.05 686.4 -224.11 685.34 -225.16 684.28 C-230.31 679.12 -235.5 674.07 -241.03 669.32 C-243.07 667.56 -245 665.7 -246.9 663.79 C-247.62 663.07 -248.34 662.35 -249.08 661.61 C-249.83 660.86 -250.57 660.11 -251.34 659.33 C-252.13 658.54 -252.92 657.75 -253.73 656.94 C-256.22 654.45 -258.7 651.95 -261.19 649.45 C-262.89 647.75 -264.58 646.05 -266.28 644.35 C-270.42 640.2 -274.55 636.04 -278.69 631.89 C-279.95 633.14 -281.21 634.39 -282.47 635.64 C-283.52 636.68 -283.52 636.68 -284.59 637.75 C-286.54 639.74 -288.39 641.78 -290.2 643.89 C-293.78 648.05 -297.56 651.96 -301.44 655.83 C-302.49 656.88 -302.49 656.88 -303.57 657.96 C-308.12 662.46 -312.81 666.6 -317.85 670.55 C-321.45 673.51 -324.81 676.69 -328.19 679.89 C-333.33 684.75 -338.55 689.4 -344.09 693.82 C-345.85 695.22 -347.6 696.66 -349.32 698.12 C-355.7 703.52 -362.41 708.1 -369.5 712.51 C-372.04 714.11 -374.54 715.75 -377.05 717.39 C-378.97 718.64 -380.89 719.89 -382.81 721.14 C-383.71 721.73 -384.6 722.32 -385.52 722.93 C-403.21 734.35 -403.21 734.35 -412.57 732.55 C-416.38 731.36 -419.78 729.66 -423.25 727.7 C-424.37 727.09 -424.37 727.09 -425.52 726.46 C-429.77 724.1 -433.72 721.6 -437.5 718.53 C-440.63 716.19 -443.97 714.23 -447.31 712.2 C-458.24 705.5 -467.97 697.62 -477.39 688.94 C-479.62 686.95 -481.92 685.13 -484.31 683.33 C-488.02 680.51 -491.21 677.41 -494.44 674.07 C-496.69 671.89 -499.03 669.99 -501.5 668.07 C-508.4 662.46 -514.64 656.24 -520.91 649.93 C-522.9 647.93 -524.91 645.93 -526.92 643.94 C-528.19 642.66 -529.46 641.39 -530.73 640.11 C-531.33 639.52 -531.93 638.92 -532.55 638.31 C-536.69 634.12 -536.69 634.12 -536.69 631.89 C-542 636.43 -547.06 641.14 -551.96 646.13 C-552.64 646.82 -553.33 647.52 -554.04 648.23 C-555.53 649.74 -557.01 651.25 -558.5 652.76 C-560.92 655.22 -563.35 657.68 -565.78 660.13 C-568.39 662.78 -571.01 665.43 -573.62 668.08 C-580.1 674.65 -586.6 681.2 -593.09 687.75 C-593.56 688.23 -594.04 688.7 -594.52 689.19 C-598.89 693.6 -603.27 698.01 -607.64 702.41 C-610.63 705.43 -613.63 708.44 -616.62 711.46 C-617.36 712.21 -617.36 712.21 -618.12 712.98 C-626.17 721.09 -634.19 729.22 -642.21 737.36 C-650.46 745.74 -658.74 754.1 -667.04 762.43 C-671.69 767.1 -676.33 771.78 -680.94 776.49 C-685.28 780.92 -689.65 785.32 -694.04 789.7 C-695.64 791.3 -697.23 792.92 -698.81 794.55 C-708.64 804.68 -715.33 810.03 -729.69 810.89 C-731.3 811.15 -732.91 811.43 -734.51 811.74 C-735.84 811.97 -737.17 812.2 -738.51 812.42 C-739.25 812.55 -740 812.68 -740.77 812.81 C-743.17 813.22 -745.56 813.62 -747.96 814.03 C-749.21 814.24 -749.21 814.24 -750.49 814.45 C-754.88 815.19 -759.28 815.93 -763.67 816.67 C-767.28 817.28 -770.88 817.89 -774.49 818.5 C-778.89 819.25 -783.29 819.99 -787.69 820.73 C-789.35 821.01 -791.01 821.29 -792.67 821.57 C-801.06 823.01 -809.14 824.26 -817.69 823.89 C-818.97 821.33 -818.56 820.18 -818.09 817.37 C-817.93 816.43 -817.77 815.48 -817.61 814.5 C-817.34 812.95 -817.34 812.95 -817.06 811.36 C-816.88 810.28 -816.7 809.19 -816.51 808.08 C-815.91 804.51 -815.3 800.95 -814.69 797.39 C-814.27 794.94 -813.86 792.49 -813.44 790.04 C-812.81 786.31 -812.18 782.58 -811.54 778.85 C-810.2 770.97 -808.9 763.09 -807.63 755.21 C-807.17 752.36 -806.71 749.5 -806.25 746.65 C-805.96 744.86 -805.67 743.08 -805.39 741.29 C-805 738.81 -804.6 736.34 -804.2 733.86 C-804.09 733.15 -803.98 732.44 -803.86 731.71 C-802.3 722.33 -798.79 717.4 -792.16 710.91 C-791 709.75 -791 709.75 -789.81 708.56 C-787.22 705.97 -784.62 703.4 -782.01 700.83 C-780.15 698.97 -778.29 697.12 -776.43 695.26 C-772.43 691.27 -768.41 687.28 -764.4 683.3 C-758.59 677.54 -752.79 671.77 -747 665.99 C-737.6 656.62 -728.18 647.25 -718.77 637.89 C-717.92 637.05 -717.92 637.05 -717.06 636.19 C-713.06 632.22 -709.06 628.24 -705.06 624.27 C-700.49 619.72 -695.92 615.18 -691.35 610.63 C-690.5 609.79 -690.5 609.79 -689.64 608.94 C-680.26 599.61 -670.88 590.27 -661.51 580.92 C-655.73 575.16 -649.94 569.41 -644.14 563.66 C-639.71 559.26 -635.28 554.85 -630.86 550.44 C-629.04 548.63 -627.22 546.82 -625.39 545.02 C-622.91 542.56 -620.43 540.09 -617.96 537.62 C-617.23 536.9 -616.5 536.19 -615.75 535.45 C-615.09 534.79 -614.43 534.12 -613.75 533.44 C-613.18 532.87 -612.61 532.3 -612.02 531.72 C-610.34 529.42 -609.93 527.72 -609.69 524.89 C-610.83 522.08 -612.04 519.51 -613.44 516.83 C-627.21 489.08 -637.87 458.85 -645.69 428.89 C-645.93 427.97 -646.17 427.05 -646.42 426.1 C-651.94 404.89 -656.94 383.49 -660.69 361.89 C-660.81 361.22 -660.92 360.55 -661.05 359.86 C-663.29 347 -664.52 334.22 -665.38 321.2 C-665.51 319.31 -665.64 317.43 -665.77 315.54 C-666.08 310.99 -666.39 306.44 -666.69 301.89 C-667.45 302.22 -668.22 302.54 -669.01 302.88 C-675.07 305.44 -681.11 307.82 -687.38 309.83 C-697.16 313.03 -706.91 316.34 -716.66 319.67 C-719.32 320.58 -721.97 321.49 -724.63 322.39 C-733.43 325.4 -742.23 328.42 -751.02 331.46 C-753.43 332.3 -755.84 333.13 -758.25 333.97 C-760.52 334.75 -762.79 335.54 -765.06 336.33 C-766.43 336.81 -767.81 337.28 -769.18 337.76 C-770.96 338.38 -770.96 338.38 -772.78 339.01 C-775.69 339.89 -775.69 339.89 -778.69 339.89 C-778.15 339.38 -777.62 338.86 -777.06 338.33 C-774.59 335.85 -774.59 335.85 -772.12 332.83 C-768.1 328.12 -763.72 323.8 -759.33 319.44 C-757.92 318.02 -756.5 316.61 -755.08 315.2 C-753.57 313.69 -752.06 312.18 -750.55 310.68 C-747.39 307.53 -744.24 304.38 -741.08 301.24 C-734.39 294.55 -727.7 287.88 -721 281.2 C-713.76 273.98 -706.52 266.76 -699.28 259.54 C-696.15 256.41 -693.01 253.28 -689.87 250.16 C-688.39 248.68 -686.91 247.21 -685.43 245.73 C-683.63 243.93 -681.83 242.13 -680.02 240.34 C-679.23 239.54 -678.43 238.75 -677.61 237.93 C-676.92 237.24 -676.23 236.56 -675.52 235.85 C-670.88 230.9 -670.33 228.36 -670.54 221.66 C-670.59 220.42 -670.64 219.17 -670.69 217.89 C-670.71 216.28 -670.73 214.67 -670.75 213.05 C-670.79 211.35 -670.83 209.65 -670.88 207.95 C-670.88 207.14 -670.89 206.32 -670.89 205.48 C-670.94 204.31 -670.94 204.31 -670.98 203.11 C-671 202.42 -671.01 201.73 -671.03 201.01 C-672 197.87 -674.38 196.13 -676.69 193.89 C-678.16 192.42 -679.63 190.94 -681.1 189.47 C-681.96 188.61 -682.81 187.76 -683.69 186.88 C-684.61 185.96 -685.53 185.03 -686.48 184.08 C-696.47 174.08 -706.46 164.08 -716.45 154.08 C-722.5 148.03 -728.54 141.97 -734.58 135.92 C-739.87 130.63 -745.15 125.34 -750.44 120.05 C-753.23 117.25 -756.03 114.45 -758.82 111.65 C-761.44 109.02 -764.07 106.4 -766.69 103.77 C-768.12 102.35 -769.54 100.92 -770.96 99.49 C-771.81 98.65 -772.65 97.8 -773.53 96.93 C-774.26 96.2 -775 95.46 -775.75 94.7 C-777.76 92.72 -777.76 92.72 -780.69 90.89 C-780.69 90.23 -780.69 89.57 -780.69 88.89 C-781.87 88.87 -781.87 88.87 -783.07 88.85 C-798.25 88.18 -811.31 82.14 -822.11 71.51 C-832.25 59.67 -834.8 46.11 -833.69 30.89 C-832.75 26.69 -831.37 22.84 -829.69 18.89 C-829.41 18.18 -829.13 17.46 -828.85 16.72 C-824.73 7.21 -816.63 -0.19 -807.69 -5.11 C-806.9 -5.6 -806.11 -6.08 -805.3 -6.58 C-798.18 -10.32 -791.49 -10.6 -783.56 -10.67 C-782.55 -10.69 -781.54 -10.7 -780.49 -10.72 C-768.09 -10.55 -757.98 -5.23 -749 3.14 C-741.44 11.11 -736.26 21.57 -734.99 32.45 C-733.68 42.37 -729.6 47.8 -722.36 54.68 C-721.28 55.75 -720.21 56.82 -719.14 57.9 C-716.26 60.78 -713.34 63.62 -710.41 66.46 C-707.34 69.44 -704.31 72.46 -701.27 75.48 C-695.54 81.17 -689.76 86.83 -683.98 92.48 C-676.75 99.54 -669.56 106.64 -662.38 113.75 C-659.86 116.24 -657.34 118.72 -654.83 121.21 C-654.22 121.81 -653.61 122.41 -652.98 123.03 C-648.78 127.18 -644.56 131.32 -640.34 135.46 C-638.68 137.09 -637.01 138.72 -635.34 140.36 C-633.8 141.88 -632.25 143.39 -630.7 144.9 C-629.78 145.8 -628.87 146.7 -627.93 147.62 C-627.13 148.4 -626.33 149.18 -625.5 149.99 C-623.69 151.89 -623.69 151.89 -622.69 153.89 C-615.99 155.73 -609.74 154.08 -603.06 152.7 C-601.94 152.49 -600.82 152.28 -599.67 152.07 C-598.59 151.85 -597.51 151.63 -596.4 151.41 C-595.42 151.22 -594.45 151.02 -593.44 150.82 C-588.5 149.15 -585.02 145.34 -581.39 141.7 C-580.57 140.88 -579.74 140.05 -578.89 139.2 C-578 138.3 -577.11 137.4 -576.19 136.47 C-575.23 135.51 -574.27 134.55 -573.31 133.58 C-571.25 131.52 -569.19 129.45 -567.13 127.38 C-563.88 124.11 -560.62 120.84 -557.36 117.57 C-548.1 108.28 -538.84 98.99 -529.58 89.69 C-524.47 84.55 -519.35 79.41 -514.23 74.28 C-510.99 71.03 -507.75 67.78 -504.52 64.53 C-502.51 62.51 -500.49 60.49 -498.48 58.47 C-497.1 57.09 -495.72 55.7 -494.35 54.31 C-493.53 53.49 -492.7 52.67 -491.86 51.82 C-490.79 50.75 -490.79 50.75 -489.7 49.66 C-487.77 47.96 -486.03 46.91 -483.69 45.89 C-485.62 53.26 -487.8 60.51 -490.23 67.73 C-490.57 68.73 -490.9 69.73 -491.25 70.76 C-492.31 73.93 -493.37 77.1 -494.44 80.27 C-495.14 82.35 -495.83 84.43 -496.53 86.52 C-497.91 90.63 -499.28 94.73 -500.66 98.83 C-503.68 107.85 -506.68 116.87 -509.69 125.89 C-509.36 126.22 -509.03 126.55 -508.69 126.89 C-492.87 120.58 -477.27 113.92 -461.88 106.64 C-461.18 106.31 -460.49 105.99 -459.77 105.65 C-449.67 100.87 -439.67 95.91 -429.69 90.89 C-428.05 90.07 -426.41 89.25 -424.77 88.43 C-424.11 88.1 -423.46 87.78 -422.79 87.44 C-419.76 85.92 -416.72 84.41 -413.69 82.89 C-413.02 82.47 -412.36 82.04 -411.67 81.6 C-407.92 80.26 -404.16 81.29 -400.58 82.75 C-398.21 83.9 -395.89 85.1 -393.56 86.34 C-392.27 87.01 -392.27 87.01 -390.94 87.69 C-388.19 89.12 -385.44 90.57 -382.69 92.02 C-379.09 93.9 -375.48 95.77 -371.88 97.65 C-371 98.11 -370.12 98.56 -369.21 99.03 C-357.56 105.06 -345.66 110.44 -333.56 115.52 C-332.5 115.97 -331.44 116.42 -330.34 116.88 C-323.7 119.68 -317.01 122.34 -310.27 124.89 C-307.69 125.89 -307.69 125.89 -305.69 126.89 C-306.18 125.52 -306.18 125.52 -306.67 124.13 C-313.34 105.46 -319.81 86.74 -325.94 67.89 C-326.22 67.02 -326.5 66.15 -326.8 65.25 C-327.6 62.78 -328.4 60.3 -329.2 57.83 C-329.44 57.1 -329.68 56.36 -329.92 55.61 C-331.06 52.06 -332.06 48.57 -332.69 44.89 C-332.03 44.89 -331.37 44.89 -330.69 44.89 C-329.29 46.31 -329.29 46.31 -327.65 48.3 C-323.46 53.22 -318.94 57.75 -314.36 62.3 C-312.96 63.69 -311.57 65.08 -310.17 66.47 C-308.69 67.95 -307.21 69.42 -305.72 70.9 C-302.62 73.98 -299.53 77.07 -296.43 80.15 C-287.64 88.92 -278.84 97.69 -270.04 106.45 C-265.16 111.3 -260.29 116.15 -255.42 121.01 C-252.35 124.08 -249.26 127.15 -246.18 130.21 C-243.82 132.55 -241.47 134.9 -239.11 137.25 C-237.83 138.53 -237.83 138.53 -236.51 139.83 C-235.74 140.6 -234.97 141.38 -234.17 142.17 C-233.49 142.85 -232.82 143.52 -232.12 144.21 C-230.69 145.89 -230.69 145.89 -230.69 147.89 C-212.93 152.88 -212.93 152.88 -194.69 153.89 C-191.99 152.25 -191.99 152.25 -189.65 149.79 C-188.71 148.88 -187.77 147.97 -186.81 147.04 C-185.79 146.01 -184.77 144.99 -183.75 143.97 C-182.66 142.9 -181.57 141.84 -180.48 140.77 C-177.52 137.88 -174.59 134.96 -171.66 132.04 C-169.83 130.21 -167.99 128.38 -166.15 126.56 C-159.71 120.19 -153.3 113.8 -146.9 107.4 C-140.95 101.45 -134.97 95.54 -128.97 89.65 C-123.8 84.57 -118.66 79.47 -113.55 74.35 C-110.5 71.3 -107.44 68.26 -104.35 65.24 C-101.44 62.4 -98.56 59.53 -95.71 56.62 C-94.66 55.57 -93.61 54.53 -92.54 53.51 C-85.04 46.29 -82.3 40.01 -81.2 29.82 C-80 20.65 -75.75 12.77 -69.69 5.89 C-68.83 4.87 -68.83 4.87 -67.95 3.84 C-50.31 -15.52 -19.9 -15.62 0 0 Z " fill="#2B5D6E" transform="translate(1047.6875,232.109375)"/>
<path d="M0 0 C1.6 1.69 1.6 1.69 3.29 4.01 C3.91 4.83 4.52 5.66 5.16 6.51 C5.77 7.33 6.37 8.15 7 9 C8.03 10.29 9.07 11.58 10.11 12.87 C28.76 36.12 44.63 61.73 58.85 87.89 C59.94 89.89 61.05 91.88 62.16 93.87 C66.44 101.62 70.01 109.5 73.26 117.73 C74.55 120.97 75.97 124.13 77.43 127.29 C80.03 132.96 82.27 138.72 84.44 144.56 C84.83 145.62 85.22 146.67 85.62 147.76 C86.76 150.83 87.88 153.92 89 157 C89.43 158.17 89.43 158.17 89.86 159.36 C100.17 187.69 106.37 217.86 110.69 247.62 C110.84 248.68 110.84 248.68 111 249.76 C111.73 254.83 112.4 259.91 113 265 C113.14 266.2 113.14 266.2 113.29 267.43 C115.15 283.72 115.36 299.94 115.31 316.31 C115.31 317.65 115.31 318.99 115.31 320.33 C115.26 340.38 114.8 360.12 112 380 C111.85 381.08 111.85 381.08 111.7 382.17 C101.96 452.08 78.84 520.69 40 580 C39.55 580.7 39.1 581.39 38.63 582.11 C29.72 595.85 20.27 609.24 10 622 C1.14 614.06 -7.36 605.79 -15.77 597.36 C-17.82 595.3 -19.89 593.24 -21.95 591.19 C-23.29 589.85 -24.62 588.51 -25.96 587.18 C-26.56 586.57 -27.17 585.97 -27.79 585.35 C-30.73 582.39 -33.57 579.38 -36.29 576.21 C-40.77 571.04 -45.62 566.24 -50.46 561.4 C-51.47 560.4 -52.47 559.4 -53.47 558.39 C-55.56 556.3 -57.65 554.21 -59.74 552.13 C-62.4 549.47 -65.06 546.81 -67.71 544.15 C-69.78 542.08 -71.85 540.02 -73.91 537.95 C-74.89 536.97 -75.87 535.99 -76.85 535.01 C-78.22 533.64 -79.6 532.26 -80.98 530.89 C-81.76 530.11 -82.54 529.34 -83.34 528.53 C-85.45 526.52 -87.6 524.6 -89.8 522.7 C-94.1 518.96 -98.14 515.01 -102.16 510.99 C-102.93 510.22 -103.7 509.45 -104.5 508.66 C-107.02 506.14 -109.54 503.62 -112.06 501.11 C-113.82 499.35 -115.58 497.59 -117.34 495.84 C-121.01 492.17 -124.69 488.5 -128.36 484.83 C-132.13 481.06 -135.91 477.29 -139.69 473.52 C-144.26 468.96 -148.83 464.4 -153.39 459.84 C-155.13 458.1 -156.87 456.36 -158.61 454.63 C-161.04 452.21 -163.46 449.79 -165.88 447.37 C-166.6 446.65 -167.33 445.93 -168.08 445.18 C-169.06 444.2 -169.06 444.2 -170.05 443.19 C-170.63 442.62 -171.2 442.05 -171.79 441.46 C-173 440 -173 440 -173 438 C-173.66 438 -174.32 438 -175 438 C-174.38 433.98 -173.09 430.8 -171.27 427.17 C-170.72 426.05 -170.16 424.93 -169.59 423.77 C-169.3 423.19 -169.01 422.6 -168.71 422 C-163.86 412.23 -159.3 402.5 -155.76 392.16 C-154.88 389.67 -153.94 387.21 -153 384.74 C-139.39 348.76 -130.76 310.8 -124 273 C-123.8 271.86 -123.59 270.73 -123.38 269.56 C-119.9 249.68 -118 229.2 -118 209 C-117.34 209 -116.68 209 -116 209 C-116 209.66 -116 210.32 -116 211 C-111.89 212.69 -107.72 214.16 -103.51 215.59 C-102.76 215.85 -102.01 216.1 -101.24 216.37 C-98.72 217.23 -96.2 218.08 -93.69 218.94 C-91.9 219.55 -90.12 220.15 -88.34 220.76 C-72.23 226.25 -56.11 231.72 -40 237.19 C-38.77 237.6 -37.54 238.02 -36.28 238.45 C-32.75 239.65 -29.22 240.85 -25.69 242.04 C-24.64 242.4 -23.59 242.75 -22.51 243.12 C-21.03 243.62 -21.03 243.62 -19.51 244.14 C-18.66 244.43 -17.81 244.71 -16.93 245.01 C-12.96 246.35 -8.98 247.68 -5 249 C-5.56 248.45 -6.12 247.91 -6.7 247.34 C-20.39 234.01 -34.04 220.62 -47.64 207.19 C-54.21 200.7 -60.8 194.22 -67.43 187.78 C-73.21 182.16 -78.96 176.51 -84.68 170.83 C-87.7 167.82 -90.74 164.83 -93.81 161.88 C-96.71 159.09 -99.57 156.26 -102.4 153.41 C-103.44 152.37 -104.5 151.35 -105.57 150.34 C-110.93 145.27 -114.46 141.19 -114.69 133.7 C-114.62 130.44 -114.35 127.25 -114 124 C-113.95 123.15 -113.9 122.29 -113.86 121.41 C-113.75 119.54 -113.54 117.67 -113.31 115.81 C-113.12 114.03 -113.12 114.03 -112.93 112.21 C-111.78 108.22 -109.99 106.83 -107 104 C-105.49 102.48 -103.98 100.97 -102.47 99.45 C-101.15 98.13 -101.15 98.13 -99.81 96.78 C-99.11 96.07 -99.11 96.07 -98.4 95.36 C-87.63 84.53 -76.85 73.72 -66.07 62.91 C-59.83 56.66 -53.61 50.41 -47.39 44.16 C-41.95 38.69 -36.51 33.23 -31.06 27.78 C-28.18 24.89 -25.3 22 -22.42 19.11 C-19.73 16.39 -17.02 13.68 -14.31 10.97 C-13.32 9.98 -12.33 8.98 -11.34 7.98 C-9.99 6.62 -8.63 5.27 -7.28 3.91 C-6.52 3.15 -5.76 2.39 -4.98 1.61 C-3 0 -3 0 0 0 Z " fill="#1B172E" transform="translate(1014,322)"/>
<path d="M0 0 C1.05 0.12 2.1 0.23 3.19 0.36 C9.49 1.07 15.75 1.95 22 3 C22.91 3.15 23.81 3.3 24.75 3.46 C62.34 9.94 100.25 21.23 135 37 C136.01 37.46 137.03 37.91 138.07 38.38 C150.95 44.18 163.66 50.13 176 57 C176.81 57.43 177.61 57.86 178.44 58.31 C206.7 73.49 232.94 92.39 257.08 113.48 C259.67 115.72 262.31 117.88 265 120 C264.45 123.99 262.53 125.87 259.76 128.7 C258.84 129.64 257.93 130.58 256.99 131.55 C255.96 132.59 254.94 133.62 253.92 134.66 C252.85 135.75 251.78 136.85 250.71 137.95 C247.19 141.54 243.65 145.13 240.11 148.71 C238.89 149.94 237.68 151.18 236.46 152.41 C231.39 157.55 226.31 162.68 221.23 167.8 C213.94 175.13 206.69 182.48 199.47 189.88 C194.38 195.07 189.27 200.24 184.14 205.39 C181.08 208.47 178.03 211.55 175.01 214.67 C172.16 217.61 169.28 220.5 166.38 223.38 C165.32 224.43 164.27 225.5 163.24 226.58 C155.48 234.72 155.48 234.72 149.32 235.41 C145.78 235.18 142.47 234.71 139 234 C137.45 233.78 135.9 233.56 134.34 233.35 C133.08 233.11 131.81 232.87 130.5 232.62 C129.21 232.39 127.92 232.16 126.59 231.91 C121.05 230.51 117.56 228.85 113.9 224.47 C109.72 219.6 105.22 215.1 100.67 210.59 C99.27 209.2 97.88 207.81 96.49 206.42 C95 204.94 93.52 203.47 92.04 201.99 C88.94 198.91 85.84 195.83 82.75 192.74 C73.95 183.97 65.15 175.21 56.35 166.45 C51.47 161.59 46.6 156.74 41.74 151.88 C38.66 148.81 35.58 145.75 32.49 142.68 C30.13 140.34 27.78 137.99 25.43 135.64 C24.14 134.36 24.14 134.36 22.82 133.06 C21.67 131.9 21.67 131.9 20.48 130.72 C19.81 130.04 19.13 129.37 18.43 128.68 C17 127 17 127 17 125 C16.34 125 15.68 125 15 125 C15.54 126.58 15.54 126.58 16.09 128.19 C24.13 151.65 32.09 175.13 39.89 198.66 C40.93 201.78 41.96 204.89 43 208 C35.13 205.57 27.61 202.41 20.05 199.18 C17.9 198.26 15.76 197.35 13.61 196.45 C0.28 190.79 -12.81 184.69 -25.75 178.19 C-26.77 177.68 -27.78 177.18 -28.83 176.66 C-33.78 174.18 -38.68 171.65 -43.52 168.97 C-44.37 168.5 -45.23 168.03 -46.11 167.55 C-47.7 166.67 -49.28 165.77 -50.85 164.86 C-55.64 162.21 -58.52 161.43 -64 163 C-66.57 164.11 -68.97 165.25 -71.44 166.56 C-72.87 167.3 -74.3 168.04 -75.73 168.78 C-76.45 169.15 -77.17 169.53 -77.91 169.91 C-83.9 173.03 -89.95 176.01 -96 179 C-97.49 179.74 -97.49 179.74 -99 180.49 C-113.5 187.68 -128.11 194.48 -143 200.81 C-143.72 201.12 -144.44 201.43 -145.18 201.74 C-147.22 202.61 -149.26 203.47 -151.31 204.33 C-153.07 205.07 -153.07 205.07 -154.86 205.82 C-157.6 206.85 -160.12 207.54 -163 208 C-162.33 202.95 -160.91 198.42 -159.23 193.64 C-158.95 192.83 -158.67 192.02 -158.38 191.18 C-157.78 189.44 -157.17 187.7 -156.57 185.96 C-154.97 181.37 -153.39 176.77 -151.81 172.18 C-151.33 170.78 -151.33 170.78 -150.84 169.35 C-147.67 160.08 -144.62 150.77 -141.62 141.44 C-141.39 140.7 -141.15 139.96 -140.9 139.19 C-139.6 135.13 -138.3 131.07 -137 127 C-137.66 127.66 -138.32 128.32 -139 129 C-140.01 129.85 -141.02 130.69 -142.05 131.56 C-146.64 135.48 -150.88 139.73 -155.15 144 C-156.04 144.89 -156.93 145.77 -157.84 146.69 C-160.26 149.09 -162.67 151.51 -165.09 153.92 C-166.59 155.43 -168.1 156.93 -169.61 158.44 C-174.88 163.7 -180.15 168.96 -185.41 174.22 C-190.31 179.13 -195.23 184.03 -200.14 188.93 C-204.36 193.14 -208.59 197.36 -212.8 201.57 C-215.32 204.09 -217.84 206.61 -220.36 209.12 C-223.17 211.91 -225.96 214.71 -228.76 217.51 C-229.6 218.35 -230.44 219.18 -231.3 220.04 C-232.06 220.8 -232.81 221.56 -233.59 222.35 C-234.25 223.01 -234.92 223.67 -235.6 224.35 C-237.22 225.89 -237.22 225.89 -237 228 C-238.67 228.67 -240.33 229.33 -242 230 C-242.67 230.31 -243.34 230.62 -244.03 230.93 C-248.38 232.5 -252.84 233.31 -257.38 234.19 C-258.3 234.38 -259.22 234.57 -260.16 234.76 C-270.28 236.72 -270.28 236.72 -275 235 C-276.93 233.06 -276.93 233.06 -279.06 230.57 C-283.96 225 -289.12 219.78 -294.4 214.56 C-295.41 213.57 -296.42 212.57 -297.42 211.57 C-299.57 209.43 -301.72 207.3 -303.87 205.17 C-307.27 201.81 -310.66 198.44 -314.06 195.06 C-315.22 193.9 -316.39 192.74 -317.55 191.58 C-318.14 191 -318.72 190.42 -319.32 189.83 C-327.2 181.99 -335.09 174.15 -342.99 166.33 C-348.34 161.03 -353.69 155.73 -359.02 150.41 C-361.84 147.6 -364.66 144.8 -367.49 142.01 C-370.15 139.39 -372.79 136.76 -375.42 134.12 C-376.39 133.16 -377.37 132.19 -378.35 131.23 C-379.68 129.93 -380.99 128.61 -382.31 127.29 C-383.05 126.55 -383.79 125.82 -384.56 125.06 C-386 123 -386 123 -385.82 120.82 C-384.78 118.51 -383.66 117.72 -381.56 116.31 C-378.32 114.02 -375.4 111.59 -372.5 108.88 C-365.74 102.71 -358.37 97.4 -351 92 C-349.88 91.17 -349.88 91.17 -348.73 90.32 C-339.39 83.43 -330.01 76.89 -320 71 C-318.29 69.98 -316.58 68.96 -314.88 67.94 C-314.07 67.46 -313.27 66.98 -312.44 66.49 C-309.88 64.92 -307.38 63.28 -304.88 61.62 C-298.49 57.54 -291.76 54.27 -284.96 50.96 C-282.1 49.56 -279.27 48.08 -276.44 46.62 C-191.08 4.14 -94.43 -11.09 0 0 Z " fill="#1B172E" transform="translate(700,152)"/>
<path d="M0 0 C3.67 3.67 7.34 7.35 11 11.03 C14.25 14.29 17.5 17.54 20.75 20.8 C22.45 22.51 24.16 24.23 25.86 25.94 C28.34 28.43 30.82 30.91 33.3 33.4 C34.43 34.53 34.43 34.53 35.58 35.69 C36.67 36.78 36.67 36.78 37.77 37.89 C38.71 38.83 38.71 38.83 39.67 39.79 C41.59 41.61 43.55 43.34 45.56 45.06 C51.03 49.82 56.11 54.97 61.23 60.1 C62.34 61.21 63.45 62.32 64.56 63.43 C67.55 66.41 70.54 69.41 73.53 72.4 C76.67 75.53 79.8 78.67 82.94 81.8 C88.2 87.06 93.46 92.32 98.72 97.59 C104.79 103.67 110.87 109.75 116.96 115.82 C122.19 121.05 127.42 126.28 132.64 131.51 C135.76 134.63 138.88 137.75 142 140.86 C144.93 143.79 147.86 146.72 150.78 149.65 C151.86 150.73 152.93 151.8 154.01 152.87 C155.47 154.34 156.94 155.81 158.4 157.28 C159.22 158.1 160.04 158.92 160.89 159.76 C166 165.18 166 165.18 166 168 C164.62 169.25 164.62 169.25 162.66 170.65 C161.94 171.18 161.21 171.7 160.47 172.24 C159.67 172.8 158.88 173.36 158.06 173.94 C156.84 174.81 156.84 174.81 155.59 175.7 C147.55 181.39 139.35 186.79 131 192 C129.88 192.7 129.88 192.7 128.75 193.42 C110.12 205.06 90.57 215.21 70.6 224.35 C68.37 225.37 66.16 226.41 63.96 227.5 C21.39 248.22 -28.12 259.39 -75 264 C-75.76 264.08 -76.53 264.16 -77.31 264.25 C-94.01 266.01 -110.59 266.36 -127.38 266.31 C-128.69 266.31 -130.01 266.31 -131.36 266.31 C-150.33 266.29 -169.01 265.7 -187.84 263.38 C-190.87 263.01 -193.91 262.72 -196.95 262.46 C-197.86 262.38 -198.77 262.3 -199.71 262.22 C-201.28 262.08 -202.86 261.95 -204.43 261.82 C-209.95 261.3 -215.24 260.09 -220.63 258.8 C-223.82 258.04 -227.02 257.35 -230.23 256.68 C-284.43 245.2 -336.59 224.64 -383.71 195.42 C-385.88 194.07 -388.07 192.75 -390.26 191.43 C-397.61 186.98 -404.7 182.2 -411.69 177.19 C-412.44 176.65 -413.2 176.11 -413.98 175.55 C-414.69 175.03 -415.4 174.52 -416.14 173.98 C-416.76 173.53 -417.39 173.07 -418.03 172.6 C-420.53 170.57 -422.73 168.29 -425 166 C-404.02 144.97 -383.03 123.95 -362.04 102.94 C-359.57 100.46 -357.09 97.98 -354.61 95.5 C-354.12 95.01 -353.63 94.52 -353.12 94.01 C-345.13 86.01 -337.14 78.01 -329.16 70 C-320.97 61.79 -312.77 53.59 -304.58 45.39 C-299.97 40.78 -295.37 36.17 -290.77 31.56 C-286.44 27.22 -282.12 22.89 -277.78 18.56 C-276.19 16.96 -274.6 15.37 -273.01 13.77 C-270.84 11.59 -268.67 9.43 -266.5 7.26 C-265.55 6.3 -265.55 6.3 -264.58 5.32 C-260.23 1 -260.23 1 -258 1 C-256.67 2.35 -256.67 2.35 -255.08 4.29 C-250.71 9.41 -246.01 14.18 -241.25 18.94 C-239.76 20.43 -238.28 21.92 -236.8 23.42 C-231.24 29.01 -225.53 34.16 -219.36 39.08 C-216.65 41.29 -214.27 43.59 -211.88 46.12 C-208.19 49.89 -204.41 53.15 -200.19 56.3 C-197.97 58.02 -195.94 59.85 -193.88 61.75 C-184.55 70.12 -174.16 77.07 -163.49 83.58 C-160.18 85.6 -157.06 87.64 -154.06 90.12 C-150.2 93.12 -145.93 95.27 -141.56 97.44 C-140.51 97.99 -140.51 97.99 -139.43 98.55 C-134.01 101.14 -129.83 101.45 -124 100 C-113.52 96.11 -104.16 89.41 -94.91 83.25 C-92.39 81.6 -89.82 80.02 -87.25 78.44 C-77.02 71.93 -67.9 64.19 -59 56 C-57.67 54.83 -56.34 53.66 -55 52.5 C-52.09 49.97 -49.23 47.4 -46.38 44.81 C-43.57 42.27 -40.75 39.78 -37.85 37.36 C-30.96 31.6 -24.41 25.6 -18.06 19.25 C-17.02 18.2 -17.02 18.2 -15.95 17.14 C-11.99 13.14 -8.2 9.03 -4.54 4.75 C-3.09 3.1 -1.58 1.54 0 0 Z " fill="#1B172E" transform="translate(769,863)"/>
<path d="M0 0 C0.91 0.52 1.82 1.03 2.75 1.56 C8.16 3.96 14.4 3.87 20 2 C22.06 1.85 24.12 1.75 26.18 1.68 C28.04 1.62 28.04 1.62 29.94 1.56 C31.24 1.52 32.54 1.48 33.88 1.44 C35.77 1.37 35.77 1.37 37.7 1.31 C60.68 0.56 60.68 0.56 65 2 C70.02 2.39 74.7 2.2 79.56 0.88 C83.72 -0.17 86.53 0.38 90.61 1.48 C96.4 2.74 102.43 2.36 108.19 1.19 C112.89 0.96 114.42 2.29 118.12 4.91 C120.11 6.28 120.11 6.28 123.25 5.88 C124.83 5.37 126.4 4.85 127.94 4.25 C130 4 130 4 133.07 5.49 C138.07 7.72 142.89 7.13 148.24 6.79 C153.44 6.61 156.69 7.5 161.22 10.05 C163.45 11.24 165.51 11.66 168 12 C171.46 12.57 173.89 13.37 176.88 15.19 C180.47 17.18 182.89 17.02 186.94 16.5 C192.22 15.84 195.08 16.46 199.75 18.89 C204.91 21.44 210.68 22.6 216.33 23.57 C230.33 25.97 243.73 30.93 255.66 38.7 C260.42 41.34 265.79 42.52 271 44 C279.88 46.66 285.97 50.58 292.89 56.66 C295.55 58.35 297.63 58.51 300.75 58.81 C305.98 59.57 309.06 60.87 312.99 64.37 C316.93 67.56 321.56 69.77 326.02 72.16 C340 79.65 352.98 88.03 364.59 98.88 C368.98 102.75 373.72 106.45 379 109 C381.78 108.82 381.78 108.82 384 108 C384.14 107.19 384.27 106.38 384.41 105.55 C386.39 95.73 386.39 95.73 390.06 93 C392.91 91.34 395.9 90.3 399 89.19 C403.8 87.42 406.15 85.06 409.04 80.9 C413.13 76.93 418.17 75.82 423.76 75.75 C425.4 75.82 427.05 75.9 428.69 76 C429.93 76.03 429.93 76.03 431.2 76.06 C435.59 76.29 437.47 76.56 440.96 79.45 C441.63 80.29 442.31 81.13 443 82 C446.22 84.91 448.64 85.75 453 86 C454.47 85.63 455.92 85.23 457.38 84.81 C461.73 83.77 464.1 84.2 467.91 86.51 C468.6 87 469.29 87.49 470 88 C470.78 88.55 471.56 89.11 472.37 89.68 C485.91 100.54 492.23 117.41 496.25 133.75 C496.43 134.46 496.6 135.17 496.78 135.9 C498.2 142.02 498.75 147.65 496.62 153.69 C495.41 157.35 494.83 160.61 494.5 164.44 C493.56 170.62 490.89 175.46 487.81 180.81 C487.35 181.61 486.9 182.41 486.43 183.24 C483.61 187.93 480.58 191.72 476.52 195.4 C474.06 197.99 473.1 200.28 472.61 203.79 C473.12 208 475 210.87 477.31 214.31 C477.76 215.01 478.21 215.7 478.67 216.41 C480.1 218.62 481.55 220.81 483 223 C491.42 235.77 499.1 248.74 506.26 262.26 C506.8 263.27 506.8 263.27 507.34 264.3 C508.31 266.12 509.26 267.94 510.21 269.77 C511.93 273.02 511.93 273.02 514.05 275.93 C516.3 279.48 517.49 282.9 518.75 286.88 C520.7 292.71 522.93 298.13 525.81 303.56 C533.76 318.73 539.01 335.37 544.24 351.65 C545.08 354.25 545.95 356.84 546.82 359.44 C550.01 369.08 552.67 378.45 554.32 388.47 C555.16 392.83 556.55 396.85 558.02 401.03 C561.02 410.15 562.25 419.52 563.23 429.03 C563.73 433.57 564.69 437.39 566.34 441.61 C567.6 446.17 567.59 450.94 567.79 455.64 C567.86 458.76 567.86 458.76 568.49 460.72 C569.24 464.07 569.24 467.42 569.32 470.84 C569.34 471.62 569.36 472.4 569.38 473.21 C569.59 481.28 569.74 489.36 569.89 497.43 C569.96 501.07 570.04 504.7 570.14 508.33 C570.25 512.53 570.34 516.73 570.4 520.93 C570.42 522.5 570.46 524.07 570.51 525.64 C570.78 534.46 570.41 541.17 565.3 548.78 C563.56 551.76 563.63 553.74 564.37 557.04 C565.32 559.98 566.33 562.91 567.36 565.83 C568.55 569.84 568.67 573.46 567 577.31 C565.68 580.85 565.9 583.96 566.03 587.7 C566 590 566 590 565 593 C564.93 595.05 564.85 597.1 564.81 599.15 C564.62 606.6 564.09 611.81 560.19 618.27 C558.55 622.03 558.33 625.63 558 629.69 C557.28 638.46 555.03 645.75 552 654 C551.46 655.81 550.94 657.62 550.44 659.44 C549.54 662.54 548.44 665.18 546.88 668 C544.85 671.77 544.53 675.07 544.47 679.31 C543.91 682.54 542.61 684.86 541.1 687.74 C539.12 691.82 537.82 696.13 536.44 700.44 C536.15 701.33 535.86 702.22 535.56 703.13 C533.88 708.24 533.88 708.24 532.27 713.37 C530.59 718.71 528.35 723.43 525.62 728.31 C522.92 733.25 520.47 738.08 518.5 743.38 C516.3 749.02 512.88 752.89 508.93 757.42 C506.57 760.57 506.15 762.88 505.64 766.69 C504.49 770.83 501.55 773.89 498.95 777.24 C497.11 779.85 496.01 782.08 494.94 785.06 C493.26 789.7 490.9 793.27 487.99 797.24 C484.48 802.11 481.32 807.22 478.09 812.29 C477.05 813.92 476 815.54 474.94 817.16 C474.32 818.12 473.7 819.08 473.06 820.06 C472.52 820.9 471.97 821.74 471.41 822.6 C468.95 826.79 467.71 830.24 467.69 835.12 C467.67 835.97 467.65 836.82 467.64 837.7 C467.96 840.67 468.58 843.12 469.42 845.97 C471.33 852.68 471.94 859.39 472.56 866.31 C472.79 868.77 473.02 871.22 473.25 873.68 C473.4 875.28 473.4 875.28 473.55 876.92 C474.02 880.14 474.92 882.94 476 886 C476.55 888.65 477.05 891.27 477.5 893.94 C477.63 894.68 477.75 895.42 477.88 896.18 C482.78 925.23 482.78 925.23 479.25 932 C477 935 477 935 475.03 935.93 C472.49 937.27 471.68 938.66 470.25 941.12 C469.82 941.85 469.39 942.57 468.95 943.32 C468.64 943.87 468.32 944.43 468 945 C464.88 944.51 462 944 459 943 C457.64 942.96 456.29 942.98 454.93 943.04 C443.28 943.39 430.7 943.35 420 938 C418.08 937.91 416.16 937.82 414.24 937.76 C406.41 937.52 399.26 936.6 391.72 934.52 C386.37 933.04 381.07 932.13 375.57 931.39 C373 931 373 931 370 930 C367.92 929.73 367.92 929.73 365.69 929.69 C364.58 929.63 364.58 929.63 363.45 929.57 C359.95 930.18 357.86 931.93 355 934 C353.87 934.78 352.73 935.56 351.59 936.33 C351 936.73 350.41 937.14 349.8 937.55 C341.45 943.2 332.88 947.97 323.92 952.59 C322.96 953.09 321.99 953.6 321 954.12 C320.15 954.56 319.31 955 318.44 955.45 C315.84 956.95 315.84 956.95 313.68 959.57 C310.35 962.58 307.36 963.12 303.06 963.69 C294.53 964.51 294.53 964.51 287.46 968.66 C287.1 969.26 286.74 969.87 286.38 970.5 C284.6 973.46 283.24 974.73 280 976 C278.63 976.29 277.26 976.54 275.88 976.75 C271.07 977.73 267.51 979.87 263.46 982.56 C257.27 986.18 252.1 986.09 245.12 985.68 C241.25 986.08 239.89 987.49 237 990 C234.64 990.84 234.64 990.84 232.25 991.38 C227.5 992.66 224.05 994.69 220.11 997.6 C215.67 1000.55 210.69 1001.69 205.56 1002.94 C204.87 1003.11 204.17 1003.28 203.45 1003.46 C197.66 1004.88 191.84 1006.12 185.99 1007.29 C183.05 1007.89 183.05 1007.89 180.63 1009.05 C177.01 1010.36 173.43 1010.47 169.62 1010.62 C168.53 1010.68 168.53 1010.68 167.41 1010.74 C164.08 1010.91 160.81 1011 157.48 1010.91 C153.36 1011.02 149.72 1011.79 145.75 1012.81 C144.69 1013.06 144.69 1013.06 143.61 1013.31 C139.69 1014.21 139.69 1014.21 136.55 1016.56 C134.49 1018.47 133.38 1018.34 130.61 1018.26 C129.33 1018.24 129.33 1018.24 128.02 1018.21 C127.12 1018.19 126.23 1018.16 125.31 1018.12 C113.65 1017.34 113.65 1017.34 103 1021 C102.42 1021.89 101.85 1022.77 101.25 1023.69 C100.14 1024.83 100.14 1024.83 99 1026 C95.56 1025.88 95.56 1025.88 93.48 1025.45 C89.41 1024.71 85.28 1024.72 81.15 1024.57 C78 1024 78 1024 75.25 1021.97 C70.66 1019.19 66.88 1019.6 61.62 1019.81 C59.66 1019.85 57.7 1019.89 55.74 1019.92 C54.29 1019.95 54.29 1019.95 52.81 1019.97 C48.8 1020.01 44.81 1019.86 40.81 1019.62 C39.56 1019.56 38.31 1019.49 37.02 1019.41 C34 1019 34 1019 31 1017 C28.58 1016.95 28.58 1016.95 26 1018 C25.22 1018.85 24.43 1019.69 23.62 1020.56 C19.39 1024.33 14.07 1023.72 8.7 1023.58 C4.03 1022.85 1.48 1021.11 -2.14 1018.21 C-4.1 1016.64 -4.1 1016.64 -7.25 1017.56 C-8.16 1018.04 -9.07 1018.51 -10 1019 C-11.66 1019.36 -13.33 1019.69 -15 1020 C-15.89 1020.21 -16.77 1020.42 -17.68 1020.64 C-25.17 1022.3 -25.17 1022.3 -29.31 1020.81 C-30.64 1019.92 -30.64 1019.92 -32 1019 C-37.72 1015.97 -42.15 1014.97 -48.62 1014.71 C-54.84 1014.46 -60.42 1013.92 -66.34 1011.88 C-69.71 1010.77 -73.12 1009.91 -76.56 1009.06 C-77.24 1008.89 -77.91 1008.72 -78.61 1008.55 C-82.23 1007.65 -85.85 1006.81 -89.49 1006.03 C-96.59 1004.5 -102.83 1002.97 -109.03 999.02 C-111.31 997.84 -113.01 997.65 -115.56 997.5 C-119.88 997.23 -122.08 995.83 -125.56 993.39 C-129.86 990.94 -134.68 989.77 -139.41 988.41 C-144.74 986.32 -148 983.66 -151 978.69 C-152.75 975.7 -152.75 975.7 -155.94 975.5 C-158.98 975.88 -158.98 975.88 -161.56 977.06 C-164.59 978.23 -165.89 977.85 -169 977 C-171.39 975.8 -171.39 975.8 -173.81 974.31 C-174.69 973.78 -175.56 973.24 -176.46 972.69 C-178.75 971.16 -180.86 969.55 -183 967.81 C-185.9 965.55 -188.32 964.47 -191.88 963.56 C-198.65 961.82 -203.63 957.64 -209.05 953.39 C-210.93 952.05 -212.71 951.13 -214.81 950.19 C-217.65 948.81 -219.87 947.38 -222.19 945.25 C-229.63 938.59 -237.95 933.76 -247.7 931.59 C-250.48 930.88 -252.55 929.47 -255 928 C-259.77 927.55 -262.36 928.46 -266.44 930.88 C-272.45 934.07 -277.87 934.96 -284.6 935.63 C-287.3 935.92 -289.6 936.34 -292.19 937.12 C-296.66 938.15 -300.7 938.06 -305.27 937.88 C-307.97 937.81 -307.97 937.81 -310 939 C-312.69 940.34 -314.71 940.09 -317.69 939.94 C-323.45 939.83 -327.68 940.95 -333 943 C-343.14 946.19 -350.29 945.07 -360 941 C-361.7 940.29 -361.7 940.29 -363.44 939.56 C-366.53 937.68 -368.2 936.16 -370 933 C-369.94 929.39 -369.81 927 -367.51 924.15 C-365.62 921.46 -365.36 919.42 -364.94 916.17 C-364.78 915.04 -364.62 913.91 -364.46 912.75 C-364.31 911.57 -364.16 910.4 -364 909.19 C-362.3 896.15 -362.3 896.15 -360.44 892.14 C-358.8 888.57 -358.36 885.52 -357.94 881.62 C-357.47 877.55 -356.98 873.58 -355.88 869.62 C-354.81 865.32 -354.97 861.09 -355.06 856.69 C-355.23 848.25 -353.67 841 -351 833 C-350.38 827.77 -350.52 825.11 -353.75 820.88 C-354.3 820.22 -354.86 819.55 -355.43 818.88 C-357 817 -357 817 -358.88 813.88 C-360.83 811.23 -362.25 809.98 -364.88 808.12 C-368.55 805.52 -370.96 802.75 -373.48 799.03 C-375.03 796.83 -375.03 796.83 -377.49 794.68 C-380.33 791.65 -381.47 789.05 -382.94 785.19 C-384.95 780.09 -387.27 775.96 -390.76 771.74 C-392.65 769.09 -393.16 766.11 -394 763 C-394.62 762.38 -395.24 761.76 -395.88 761.12 C-399.04 757.96 -400.32 754.09 -402 750 C-402.33 749.34 -402.66 748.68 -403 748 C-403.24 744.46 -403.38 740.93 -403.52 737.38 C-404.03 733.81 -404.71 732.66 -407 730 C-409.34 725.09 -411.05 719.98 -412.5 714.75 C-414.5 707.95 -417.77 703.83 -423.41 699.69 C-427.75 695.08 -427.29 688.68 -427.44 682.75 C-427.7 672.54 -427.7 672.54 -431 663 C-433.35 660.92 -433.35 660.92 -436 660 C-436.99 659.34 -437.98 658.68 -439 658 C-439.26 654.92 -439.39 652.79 -438 650 C-437.36 643.44 -438.59 637.5 -440.25 631.19 C-440.71 629.34 -441.17 627.49 -441.63 625.64 C-441.86 624.71 -442.09 623.77 -442.33 622.81 C-443.97 615.96 -445.28 609.04 -446.59 602.12 C-446.94 600.29 -447.32 598.47 -447.69 596.64 C-449.07 589.52 -449.07 582.79 -448.78 575.57 C-449.02 571.71 -449.91 570.15 -452 567 C-453.15 561.24 -451.79 556.61 -449.07 551.53 C-448 550 -448 550 -446 549 C-444.62 540.96 -444.87 532.82 -444.9 524.68 C-444.9 523.22 -444.91 521.75 -444.91 520.28 C-444.91 516.45 -444.92 512.62 -444.93 508.79 C-444.94 504.87 -444.95 500.94 -444.95 497.02 C-444.96 489.35 -444.98 481.67 -445 474 C-445.62 473.71 -446.25 473.43 -446.89 473.13 C-449.88 471.53 -450.67 470.13 -452 467 C-452.5 462.82 -452.44 459.22 -451.01 455.24 C-449.78 451.31 -449.62 447.72 -449.5 443.62 C-449.32 437.77 -448.49 432.67 -447 427 C-446.85 425.44 -446.74 423.88 -446.69 422.31 C-446.12 414.89 -444.15 407.78 -442.35 400.57 C-441.34 396.51 -440.46 392.43 -439.61 388.32 C-437.94 380.49 -435.87 372.81 -433.62 365.12 C-433.42 364.4 -433.21 363.68 -432.99 362.94 C-429.24 350.13 -424.6 337.81 -419.38 325.53 C-416.8 319.47 -414.48 313.5 -412.7 307.15 C-411.6 303.77 -409.93 301.04 -408.06 298 C-404.02 291.22 -400.67 284.59 -399.12 276.81 C-398.06 273.19 -397.64 272.36 -395.2 269.84 C-391.67 265.87 -389.81 261.65 -387.75 256.81 C-384.4 249.31 -380.63 243.57 -375.14 237.5 C-372.8 234.76 -371.47 232.19 -370.05 228.92 C-368.71 226.46 -366.98 224.66 -365.06 222.62 C-361.46 218.77 -359.33 214.99 -357.16 210.22 C-356 208 -356 208 -353.19 205.25 C-350.74 203.17 -350.74 203.17 -350.56 200.14 C-351.14 195.99 -352.58 195.02 -355.81 192.44 C-359.44 189.5 -361.62 186.99 -364 183 C-367.01 181.77 -367.01 181.77 -370 181 C-372.26 178.74 -372.35 177.98 -372.88 174.94 C-374.56 166.83 -378.36 160.13 -382.73 153.16 C-385.59 148.28 -385.66 143.5 -385 138 C-383.97 134.7 -382.74 131.56 -381.39 128.37 C-380.02 125.24 -380.02 125.24 -379.42 122.84 C-377.66 116.41 -374.74 113.17 -369.69 108.94 C-364.92 104.84 -361.01 100.84 -357.34 95.72 C-355.68 93.58 -353.93 92.35 -351.56 91.06 C-347.14 88.37 -344.58 85.22 -341.7 80.95 C-339.14 78.01 -336.31 77.13 -332.46 76.74 C-331.58 76.74 -330.7 76.74 -329.8 76.73 C-328.82 76.73 -327.83 76.73 -326.82 76.73 C-325.3 76.74 -325.3 76.74 -323.75 76.75 C-322.75 76.74 -321.75 76.73 -320.72 76.73 C-304.03 76.77 -283.65 83.85 -271 95 C-269.09 98.13 -267.68 101.11 -266.44 104.56 C-265.18 107.3 -265.18 107.3 -262 108.04 C-259.06 108.32 -259.06 108.32 -257.52 106.74 C-257.14 106.13 -256.77 105.51 -256.38 104.88 C-253.73 101.37 -251.49 100.17 -247.38 98.69 C-241.07 96.34 -236.64 92.66 -231.68 88.29 C-228.57 85.63 -225.61 83.91 -222 82 C-219.79 80.57 -217.62 79.1 -215.45 77.62 C-213.77 76.51 -212.06 75.43 -210.33 74.38 C-205.52 71.44 -201.35 68.51 -197.31 64.56 C-189.32 57.15 -179.5 52.34 -168.75 50.62 C-161.53 49.41 -157.89 46.16 -152.82 41.18 C-148.69 37.99 -144.92 38.12 -139.88 37.81 C-136.44 36.84 -135.66 35.37 -133.57 32.61 C-130.2 29.16 -125.4 27.77 -121 26 C-119.94 25.54 -118.88 25.08 -117.79 24.6 C-102.35 18.05 -86.03 13.75 -69.69 10.06 C-68.78 9.85 -67.86 9.64 -66.93 9.42 C-61.32 8.21 -56.15 7.93 -50.42 8.04 C-47.44 7.99 -45.16 7.32 -42.44 6.12 C-35.53 3.35 -28.4 0.83 -21 3 C-20.01 3.66 -19.02 4.32 -18 5 C-15.54 5.58 -15.54 5.58 -13 5 C-10.78 2.62 -10.78 2.62 -9 0 C-5.85 -1.58 -3.39 -0.68 0 0 Z M-47 30 C-48.28 30.28 -49.57 30.57 -50.89 30.86 C-92.86 40.24 -133.82 55.24 -172 75 C-172.62 75.32 -173.23 75.64 -173.87 75.96 C-186.88 82.7 -199.84 89.78 -211.71 98.38 C-214.07 100.05 -216.48 101.55 -218.94 103.06 C-232.88 111.85 -245.98 122.17 -258.41 132.96 C-259 133.46 -259.58 133.97 -260.19 134.49 C-261.33 135.47 -262.46 136.46 -263.59 137.46 C-266.28 139.79 -268.39 141.58 -272 142 C-272.01 141.27 -272.03 140.55 -272.04 139.8 C-272.73 125.25 -279.3 112.88 -289.72 102.86 C-301.93 92.91 -314.88 91.84 -330.04 92.68 C-342.68 94.03 -352.82 101.69 -361 111 C-363.09 113.88 -364.62 116.73 -366 120 C-366.38 120.87 -366.75 121.74 -367.14 122.64 C-372.35 135.18 -372.63 148.11 -368 161 C-361.95 174.95 -350.15 183.94 -336.31 189.56 C-330.88 191.35 -325.67 191.39 -320 191 C-320.5 195.27 -323.2 197.86 -325.94 200.94 C-326.95 202.11 -327.96 203.28 -328.97 204.46 C-329.48 205.05 -329.99 205.64 -330.52 206.26 C-339.53 216.87 -347.27 228.44 -355 240 C-355.41 240.6 -355.81 241.21 -356.23 241.83 C-382.75 281.49 -402.19 325.42 -416 371 C-416.39 372.27 -416.39 372.27 -416.79 373.56 C-426.61 405.58 -431.99 438.7 -435 472 C-435.1 473.03 -435.19 474.05 -435.29 475.11 C-436.26 486.64 -436.24 498.19 -436.25 509.75 C-436.25 510.85 -436.25 511.96 -436.25 513.1 C-436.23 532.22 -435.42 551.03 -433 570 C-432.83 571.3 -432.67 572.61 -432.5 573.95 C-428.34 605.62 -421.27 636.75 -411 667 C-410.63 668.1 -410.25 669.21 -409.87 670.35 C-405.01 684.61 -399.46 698.39 -393 712 C-392.31 713.46 -392.31 713.46 -391.61 714.95 C-381.53 736.39 -371.01 757.19 -358 777 C-357.25 778.15 -356.5 779.31 -355.75 780.46 C-350.08 789.08 -344.06 797.41 -337.75 805.56 C-337.13 806.37 -336.5 807.17 -335.86 808 C-334 810 -332.5 810.97 -330 812 C-331.06 815.76 -332.69 817.72 -335.42 820.35 C-340.18 825.76 -340.76 831.41 -341.75 838.38 C-341.97 839.78 -342.19 841.19 -342.42 842.59 C-342.81 845.03 -343.2 847.47 -343.57 849.91 C-344.79 857.82 -346.12 865.71 -347.47 873.6 C-348.5 879.64 -349.53 885.68 -350.55 891.72 C-350.94 894 -351.33 896.29 -351.72 898.58 C-352.34 902.22 -352.95 905.86 -353.56 909.5 C-353.79 910.87 -354.02 912.24 -354.25 913.6 C-354.57 915.48 -354.89 917.37 -355.2 919.25 C-355.38 920.32 -355.56 921.38 -355.74 922.48 C-356.23 924.99 -356.23 924.99 -355 927 C-348.37 927.17 -342.12 926.77 -335.59 925.67 C-334.71 925.53 -333.83 925.39 -332.92 925.24 C-330.04 924.78 -327.17 924.3 -324.29 923.82 C-322.28 923.49 -320.27 923.17 -318.25 922.84 C-314.05 922.15 -309.84 921.45 -305.64 920.76 C-300.26 919.86 -294.87 918.99 -289.49 918.11 C-285.33 917.44 -281.18 916.75 -277.03 916.07 C-275.05 915.74 -273.06 915.42 -271.08 915.1 C-268.3 914.65 -265.53 914.18 -262.76 913.72 C-261.54 913.52 -261.54 913.52 -260.29 913.33 C-253.88 912.22 -249.73 910.04 -245.19 905.31 C-244.58 904.69 -243.98 904.07 -243.36 903.43 C-242.91 902.96 -242.46 902.48 -242 902 C-238.44 903.63 -235.38 905.75 -232.19 908 C-220.69 916.03 -209.06 923.83 -197 931 C-196.33 931.4 -195.66 931.81 -194.97 932.22 C-144.28 962.59 -89.44 982.63 -31.43 993.54 C-29.79 993.85 -28.14 994.18 -26.5 994.52 C-21.95 995.4 -17.35 995.88 -12.75 996.44 C-11.79 996.56 -10.83 996.68 -9.84 996.81 C11.75 999.43 33.26 1000.41 55 1000.38 C56.3 1000.37 57.6 1000.37 58.94 1000.37 C91.42 1000.32 123.19 997.69 155 991 C156.07 990.78 157.13 990.56 158.23 990.34 C194.46 982.81 230.87 971.05 263.84 954.1 C266.15 952.92 268.48 951.77 270.82 950.62 C295.54 938.45 318.83 924.46 341.18 908.31 C344.11 906.2 347.06 904.1 350 902 C351.6 903.43 353.19 904.86 354.79 906.3 C360.55 910.73 365.59 912.69 372.67 913.83 C373.5 913.98 374.34 914.12 375.21 914.28 C377.96 914.75 380.72 915.21 383.48 915.67 C385.41 916 387.34 916.33 389.27 916.66 C393.32 917.35 397.36 918.04 401.41 918.71 C406.57 919.57 411.72 920.45 416.87 921.34 C420.86 922.03 424.86 922.7 428.85 923.37 C430.75 923.69 432.64 924.02 434.54 924.34 C444.79 926.1 454.57 927.54 465 927 C461.54 904.49 457.87 882.02 454.09 859.56 C453.75 857.57 453.42 855.57 453.08 853.58 C452.45 849.8 451.81 846.03 451.17 842.25 C450.98 841.12 450.79 839.99 450.6 838.82 C448.8 827.13 448.8 827.13 442.14 817.77 C441 816 441 816 441.05 813.65 C442.26 810.26 444.04 808.04 446.31 805.25 C447.23 804.1 448.14 802.94 449.05 801.79 C449.53 801.17 450.01 800.56 450.51 799.93 C459.09 788.81 466.78 777.04 474 765 C474.43 764.28 474.86 763.56 475.31 762.82 C500.58 720.48 519.55 674.99 531 627 C531.25 625.96 531.5 624.91 531.76 623.84 C535.08 609.74 537.68 595.58 539.75 581.25 C539.85 580.56 539.95 579.88 540.06 579.17 C543.41 556.06 544.41 533.03 544.38 509.69 C544.37 509.01 544.37 508.33 544.37 507.63 C544.37 485.82 543.42 464.57 540 443 C539.71 441.01 539.43 439.03 539.15 437.04 C532.55 390.4 518.87 343.34 498 301 C497.69 300.36 497.37 299.72 497.05 299.06 C492.25 289.26 487.28 279.55 482 270 C481.66 269.38 481.32 268.76 480.96 268.13 C467.97 244.86 452.46 222.82 435.69 202.13 C433.34 199.17 431.16 196.11 429 193 C430.61 191.39 432.52 191.84 434.75 191.75 C447.38 190.65 458.71 184.76 467.32 175.51 C474.5 166.79 479.11 158.44 480 147 C480.05 146.33 480.11 145.67 480.16 144.98 C480.78 129.81 474.96 116.17 464.88 105.06 C454.94 95.85 442.14 91.51 428.76 91.81 C414.53 92.78 402.07 99.07 392.18 109.27 C385.68 117.42 381.62 127.65 379.88 137.88 C379.71 138.84 379.54 139.81 379.37 140.8 C379.25 141.53 379.12 142.25 379 143 C378.07 142.04 378.07 142.04 377.12 141.06 C369.57 133.55 361.45 126.82 352.92 120.44 C351.58 119.44 350.25 118.43 348.92 117.42 C337.18 108.49 325.07 100.37 312.54 92.59 C310.22 91.14 307.91 89.66 305.61 88.18 C297.43 82.92 289.1 78.3 280.32 74.11 C277.72 72.87 275.13 71.6 272.55 70.34 C216.4 43.04 156.24 25.99 94 21 C92.95 20.91 91.91 20.81 90.83 20.71 C45.02 16.87 -2.16 19.98 -47 30 Z " fill="#1B182E" transform="translate(585,129)"/>
<path d="M0 0 C2.52 2.29 4.07 4.64 5.71 7.62 C6.23 8.55 6.75 9.47 7.28 10.43 C7.82 11.42 8.37 12.41 8.94 13.44 C21.09 35.27 21.09 35.27 35 56 C36.63 58.27 38.25 60.54 39.88 62.81 C40.3 63.41 40.73 64 41.17 64.61 C44.01 68.59 46.8 72.6 49.56 76.62 C56.93 87.6 56.93 87.6 65.58 97.53 C67.9 99.9 69.36 102.14 71 105 C49.02 127.28 27 149.53 4.94 171.73 C2.33 174.35 -0.28 176.98 -2.89 179.6 C-3.41 180.13 -3.93 180.65 -4.46 181.19 C-12.85 189.63 -21.22 198.11 -29.58 206.58 C-38.17 215.29 -46.78 223.98 -55.41 232.64 C-60.74 237.98 -66.04 243.33 -71.32 248.72 C-75.37 252.85 -79.46 256.95 -83.57 261.04 C-85.24 262.72 -86.9 264.4 -88.55 266.1 C-98.55 276.39 -105.37 282.22 -120 283 C-121.61 283.26 -123.22 283.54 -124.82 283.85 C-126.15 284.08 -127.48 284.31 -128.82 284.53 C-129.56 284.66 -130.31 284.79 -131.08 284.92 C-133.48 285.33 -135.88 285.73 -138.27 286.14 C-139.52 286.35 -139.52 286.35 -140.8 286.56 C-145.19 287.3 -149.59 288.04 -153.98 288.78 C-157.59 289.39 -161.19 290 -164.8 290.61 C-169.2 291.36 -173.6 292.1 -178 292.84 C-179.67 293.12 -181.33 293.4 -182.99 293.68 C-191.37 295.12 -199.46 296.37 -208 296 C-209.28 293.44 -208.88 292.29 -208.4 289.48 C-208.24 288.54 -208.08 287.59 -207.92 286.61 C-207.65 285.06 -207.65 285.06 -207.38 283.47 C-207.19 282.39 -207.01 281.3 -206.82 280.19 C-206.22 276.62 -205.61 273.06 -205 269.5 C-204.58 267.05 -204.17 264.6 -203.75 262.15 C-203.12 258.42 -202.49 254.69 -201.85 250.96 C-200.51 243.08 -199.21 235.2 -197.95 227.32 C-197.48 224.46 -197.02 221.61 -196.56 218.76 C-196.27 216.97 -195.99 215.19 -195.71 213.4 C-195.31 210.92 -194.91 208.45 -194.51 205.97 C-194.4 205.26 -194.29 204.55 -194.18 203.82 C-192.62 194.44 -189.09 189.5 -182.47 183 C-181.7 182.22 -180.92 181.44 -180.13 180.64 C-177.54 178.05 -174.93 175.47 -172.33 172.89 C-170.46 171.03 -168.6 169.17 -166.74 167.31 C-162.74 163.31 -158.73 159.31 -154.71 155.32 C-148.9 149.55 -143.11 143.76 -137.31 137.98 C-127.91 128.59 -118.5 119.21 -109.08 109.83 C-99.94 100.73 -90.8 91.63 -81.66 82.52 C-81.1 81.95 -80.53 81.39 -79.95 80.81 C-73.81 74.69 -67.66 68.56 -61.52 62.43 C-60.71 61.62 -60.71 61.62 -59.89 60.8 C-56.65 57.57 -56.65 57.57 -53.42 54.35 C-47.1 48.04 -40.78 41.74 -34.45 35.45 C-30.02 31.03 -25.6 26.62 -21.17 22.21 C-19.35 20.39 -17.53 18.58 -15.7 16.77 C-13.22 14.3 -10.75 11.84 -8.28 9.37 C-7.54 8.64 -6.81 7.92 -6.06 7.17 C-5.4 6.51 -4.74 5.86 -4.07 5.18 C-3.49 4.61 -2.92 4.04 -2.33 3.45 C-0.89 2.02 -0.89 2.02 0 0 Z " fill="#5FB8A6" transform="translate(438,760)"/>
<path d="M0 0 C0.66 0 1.32 0 2 0 C3.45 1.47 3.45 1.47 5.14 3.5 C8.84 7.86 12.78 11.92 16.83 15.96 C17.95 17.08 17.95 17.08 19.1 18.23 C21.55 20.69 24.01 23.14 26.46 25.6 C28.18 27.32 29.9 29.04 31.62 30.76 C35.22 34.36 38.82 37.95 42.41 41.54 C47.01 46.14 51.6 50.73 56.2 55.33 C59.74 58.88 63.29 62.43 66.84 65.98 C68.54 67.67 70.23 69.36 71.92 71.06 C74.29 73.43 76.67 75.8 79.04 78.17 C80.08 79.21 80.08 79.21 81.13 80.27 C85.02 84.14 89.03 87.82 93.18 91.41 C95.58 93.51 97.85 95.73 100.11 97.98 C101.03 98.9 101.95 99.81 102.89 100.75 C103.87 101.73 104.84 102.71 105.82 103.68 C106.84 104.71 107.87 105.73 108.89 106.76 C111.03 108.89 113.17 111.03 115.3 113.17 C118.01 115.89 120.73 118.61 123.46 121.32 C125.57 123.43 127.68 125.55 129.79 127.66 C130.8 128.66 131.8 129.66 132.8 130.66 C137.83 135.68 142.73 140.74 147.36 146.13 C150.23 149.4 153.32 152.46 156.4 155.54 C157.08 156.22 157.77 156.9 158.47 157.6 C159.9 159.03 161.33 160.46 162.76 161.89 C164.93 164.06 167.1 166.23 169.26 168.4 C170.66 169.8 172.06 171.2 173.46 172.6 C174.42 173.56 174.42 173.56 175.39 174.53 C178.55 177.67 181.75 180.66 185.16 183.53 C192.28 189.76 194.74 195.04 196.18 204.37 C196.43 205.89 196.43 205.89 196.69 207.45 C197.25 210.78 197.78 214.11 198.31 217.44 C198.69 219.75 199.08 222.06 199.46 224.37 C200.26 229.16 201.04 233.95 201.82 238.74 C202.97 245.85 204.16 252.95 205.36 260.04 C206.77 268.41 208.18 276.77 209.57 285.13 C209.71 286.01 209.86 286.88 210.01 287.78 C211 293.77 211 293.77 211 296 C199.62 296.59 188.9 294.78 177.73 292.86 C175.79 292.53 173.85 292.21 171.91 291.88 C167.88 291.2 163.84 290.51 159.81 289.81 C154.65 288.92 149.49 288.06 144.32 287.2 C140.33 286.53 136.34 285.85 132.35 285.16 C130.45 284.84 128.54 284.52 126.64 284.2 C123.98 283.76 121.32 283.3 118.67 282.83 C117.89 282.71 117.11 282.58 116.31 282.45 C108.72 281.08 103.41 277.84 98 272.25 C97.22 271.45 96.43 270.65 95.62 269.83 C93.7 267.75 91.86 265.67 90.02 263.52 C85.27 258.08 80.16 253.02 75.05 247.92 C73.96 246.83 72.87 245.74 71.78 244.64 C68.83 241.69 65.89 238.75 62.94 235.8 C59.84 232.71 56.75 229.61 53.65 226.52 C48.46 221.32 43.26 216.12 38.06 210.93 C32.06 204.94 26.07 198.95 20.08 192.95 C14.92 187.79 9.76 182.63 4.6 177.46 C1.52 174.39 -1.55 171.31 -4.63 168.24 C-7.52 165.34 -10.41 162.45 -13.31 159.56 C-14.36 158.51 -15.42 157.45 -16.47 156.39 C-21.63 151.23 -26.81 146.17 -32.35 141.42 C-34.36 139.69 -36.25 137.87 -38.12 135.99 C-39.17 134.94 -39.17 134.94 -40.24 133.87 C-40.97 133.14 -41.69 132.41 -42.44 131.66 C-43.2 130.89 -43.97 130.13 -44.76 129.34 C-47.17 126.91 -49.59 124.49 -52 122.06 C-53.65 120.41 -55.3 118.75 -56.95 117.1 C-60.97 113.07 -64.99 109.04 -69 105 C-67.11 100.94 -64.4 97.88 -61.44 94.56 C-56.64 89.08 -52.37 83.49 -48.33 77.43 C-46.39 74.52 -44.33 71.71 -42.26 68.9 C-37.82 62.82 -33.67 56.56 -29.56 50.25 C-29.19 49.68 -28.82 49.11 -28.44 48.52 C-18.16 32.74 -8.92 16.58 0 0 Z " fill="#5FB8A6" transform="translate(839,760)"/>
<path d="M0 0 C1.05 0.12 2.1 0.23 3.19 0.36 C9.49 1.07 15.75 1.95 22 3 C22.91 3.15 23.81 3.3 24.75 3.46 C62.34 9.94 100.25 21.23 135 37 C136.01 37.46 137.03 37.91 138.07 38.38 C150.95 44.18 163.66 50.13 176 57 C176.81 57.43 177.61 57.86 178.44 58.31 C206.7 73.49 232.94 92.39 257.08 113.48 C259.67 115.72 262.31 117.88 265 120 C264.45 123.99 262.53 125.87 259.76 128.7 C258.84 129.64 257.93 130.58 256.99 131.55 C255.96 132.59 254.94 133.62 253.92 134.66 C252.85 135.75 251.78 136.85 250.71 137.95 C247.19 141.54 243.65 145.13 240.11 148.71 C238.89 149.94 237.68 151.18 236.46 152.41 C231.39 157.55 226.31 162.68 221.23 167.8 C213.94 175.13 206.69 182.48 199.47 189.88 C194.38 195.07 189.27 200.24 184.14 205.39 C181.08 208.47 178.03 211.55 175.01 214.67 C172.16 217.61 169.28 220.5 166.38 223.38 C165.32 224.43 164.27 225.5 163.24 226.58 C155.48 234.72 155.48 234.72 149.32 235.41 C145.78 235.18 142.47 234.71 139 234 C137.45 233.78 135.9 233.56 134.34 233.35 C133.08 233.11 131.81 232.87 130.5 232.62 C129.21 232.39 127.92 232.16 126.59 231.91 C121.05 230.51 117.56 228.85 113.9 224.47 C109.72 219.6 105.22 215.1 100.67 210.59 C99.27 209.2 97.88 207.81 96.49 206.42 C95 204.94 93.52 203.47 92.04 201.99 C88.94 198.91 85.84 195.83 82.75 192.74 C73.95 183.97 65.15 175.21 56.35 166.45 C51.47 161.59 46.6 156.74 41.74 151.88 C38.66 148.81 35.58 145.75 32.49 142.68 C30.13 140.34 27.78 137.99 25.43 135.64 C24.14 134.36 24.14 134.36 22.82 133.06 C21.67 131.9 21.67 131.9 20.48 130.72 C19.81 130.04 19.13 129.37 18.43 128.68 C17 127 17 127 17 125 C16.34 125 15.68 125 15 125 C15.54 126.58 15.54 126.58 16.09 128.19 C24.13 151.65 32.09 175.13 39.89 198.66 C40.93 201.78 41.96 204.89 43 208 C35.13 205.57 27.61 202.41 20.05 199.18 C17.9 198.26 15.76 197.35 13.61 196.45 C0.28 190.79 -12.81 184.69 -25.75 178.19 C-26.77 177.68 -27.78 177.18 -28.83 176.66 C-33.78 174.18 -38.68 171.65 -43.52 168.97 C-44.37 168.5 -45.23 168.03 -46.11 167.55 C-47.7 166.67 -49.28 165.77 -50.85 164.86 C-55.64 162.21 -58.52 161.43 -64 163 C-66.57 164.11 -68.97 165.25 -71.44 166.56 C-72.87 167.3 -74.3 168.04 -75.73 168.78 C-76.45 169.15 -77.17 169.53 -77.91 169.91 C-83.9 173.03 -89.95 176.01 -96 179 C-97.49 179.74 -97.49 179.74 -99 180.49 C-113.5 187.68 -128.11 194.48 -143 200.81 C-143.72 201.12 -144.44 201.43 -145.18 201.74 C-147.22 202.61 -149.26 203.47 -151.31 204.33 C-153.07 205.07 -153.07 205.07 -154.86 205.82 C-157.6 206.85 -160.12 207.54 -163 208 C-162.33 202.95 -160.91 198.42 -159.23 193.64 C-158.95 192.83 -158.67 192.02 -158.38 191.18 C-157.78 189.44 -157.17 187.7 -156.57 185.96 C-154.97 181.37 -153.39 176.77 -151.81 172.18 C-151.33 170.78 -151.33 170.78 -150.84 169.35 C-147.67 160.08 -144.62 150.77 -141.62 141.44 C-141.39 140.7 -141.15 139.96 -140.9 139.19 C-139.6 135.13 -138.3 131.07 -137 127 C-137.66 127.66 -138.32 128.32 -139 129 C-140.01 129.85 -141.02 130.69 -142.05 131.56 C-146.64 135.48 -150.88 139.73 -155.15 144 C-156.04 144.89 -156.93 145.77 -157.84 146.69 C-160.26 149.09 -162.67 151.51 -165.09 153.92 C-166.59 155.43 -168.1 156.93 -169.61 158.44 C-174.88 163.7 -180.15 168.96 -185.41 174.22 C-190.31 179.13 -195.23 184.03 -200.14 188.93 C-204.36 193.14 -208.59 197.36 -212.8 201.57 C-215.32 204.09 -217.84 206.61 -220.36 209.12 C-223.17 211.91 -225.96 214.71 -228.76 217.51 C-229.6 218.35 -230.44 219.18 -231.3 220.04 C-232.06 220.8 -232.81 221.56 -233.59 222.35 C-234.25 223.01 -234.92 223.67 -235.6 224.35 C-237.22 225.89 -237.22 225.89 -237 228 C-238.67 228.67 -240.33 229.33 -242 230 C-242.67 230.31 -243.34 230.62 -244.03 230.93 C-248.38 232.5 -252.84 233.31 -257.38 234.19 C-258.3 234.38 -259.22 234.57 -260.16 234.76 C-270.28 236.72 -270.28 236.72 -275 235 C-276.93 233.06 -276.93 233.06 -279.06 230.57 C-283.96 225 -289.12 219.78 -294.4 214.56 C-295.41 213.57 -296.42 212.57 -297.42 211.57 C-299.57 209.43 -301.72 207.3 -303.87 205.17 C-307.27 201.81 -310.66 198.44 -314.06 195.06 C-315.22 193.9 -316.39 192.74 -317.55 191.58 C-318.14 191 -318.72 190.42 -319.32 189.83 C-327.2 181.99 -335.09 174.15 -342.99 166.33 C-348.34 161.03 -353.69 155.73 -359.02 150.41 C-361.84 147.6 -364.66 144.8 -367.49 142.01 C-370.15 139.39 -372.79 136.76 -375.42 134.12 C-376.39 133.16 -377.37 132.19 -378.35 131.23 C-379.68 129.93 -380.99 128.61 -382.31 127.29 C-383.05 126.55 -383.79 125.82 -384.56 125.06 C-386 123 -386 123 -385.82 120.82 C-384.78 118.51 -383.66 117.72 -381.56 116.31 C-378.32 114.02 -375.4 111.59 -372.5 108.88 C-365.74 102.71 -358.37 97.4 -351 92 C-349.88 91.17 -349.88 91.17 -348.73 90.32 C-339.39 83.43 -330.01 76.89 -320 71 C-318.29 69.98 -316.58 68.96 -314.88 67.94 C-314.07 67.46 -313.27 66.98 -312.44 66.49 C-309.88 64.92 -307.38 63.28 -304.88 61.62 C-298.49 57.54 -291.76 54.27 -284.96 50.96 C-282.1 49.56 -279.27 48.08 -276.44 46.62 C-191.08 4.14 -94.43 -11.09 0 0 Z M-75.62 9.06 C-77.69 11.34 -78.54 11.96 -81.65 12.25 C-85.46 11.92 -88.83 11.52 -92.34 9.95 C-95.89 8.68 -99.27 8.71 -103 8.75 C-103.7 8.74 -104.4 8.73 -105.12 8.73 C-109.28 8.74 -112.19 9.45 -116 11 C-119.03 11.49 -122.07 11.74 -125.12 12 C-137.23 12.39 -137.23 12.39 -148.04 16.56 C-150.73 18.54 -153 18.09 -156.23 17.98 C-165.29 18.04 -174.36 19.05 -181.45 25.08 C-184.57 27.43 -187.05 27.96 -190.88 28.75 C-206 32.16 -220.85 37.69 -235 44 C-236.15 44.5 -236.15 44.5 -237.32 45.02 C-240.4 46.37 -243.47 47.75 -246.51 49.18 C-251.51 51.52 -256.43 53.49 -261.69 55.19 C-273.7 59.39 -283.88 66.77 -293.49 74.98 C-295.92 76.94 -298.35 78.47 -301.06 80 C-305.79 82.69 -309.47 86.06 -313.42 89.77 C-316.86 92.74 -320.61 94.97 -324.49 97.32 C-326.85 98.9 -328.46 100.43 -330.31 102.56 C-333.43 105.96 -336.65 107.19 -340.94 108.81 C-347.77 111.54 -352.89 115.14 -356 122 C-355.91 126.96 -354.29 129.39 -350.94 132.94 C-349.84 134.13 -349.84 134.13 -348.71 135.34 C-346.63 137.38 -344.53 139.29 -342.32 141.2 C-337.3 145.55 -332.62 150.23 -327.94 154.94 C-327.08 155.79 -326.22 156.65 -325.33 157.53 C-320.89 161.98 -316.59 166.48 -312.54 171.3 C-310.93 173.08 -309.22 174.59 -307.38 176.12 C-302.82 179.97 -298.89 184.33 -294.92 188.76 C-291.53 192.5 -287.95 195.83 -284.12 199.12 C-279.38 203.33 -275.04 207.96 -270.62 212.5 C-263.16 220.53 -263.16 220.53 -253.38 224.5 C-249.75 223.96 -247.79 223.38 -245 221 C-244.15 218.66 -244.15 218.66 -244 216 C-243.73 213.99 -243.41 211.99 -243 210 C-242.34 209.67 -241.68 209.34 -241 209 C-241.33 211.31 -241.66 213.62 -242 216 C-241.77 215.36 -241.55 214.72 -241.31 214.06 C-240 212 -240 212 -237.38 211.25 C-236.59 211.17 -235.81 211.09 -235 211 C-234.3 208.51 -233.96 206.36 -233.81 203.75 C-232 195.39 -225.33 190.25 -219 185 C-213.75 180.59 -209.16 176.35 -205.29 170.66 C-204 169 -204 169 -201 167 C-201.64 167.72 -202.28 168.44 -202.94 169.19 C-204.99 171.98 -205.61 173.62 -206 177 C-205.46 176.32 -204.93 175.64 -204.38 174.94 C-203.59 173.97 -202.81 173 -202 172 C-201.56 171.42 -201.13 170.85 -200.68 170.25 C-196.98 165.55 -193.49 163.37 -188 161 C-190.95 159.84 -190.95 159.84 -194 160 C-192.99 159.18 -191.98 158.35 -190.94 157.5 C-188.2 155.19 -185.97 152.8 -183.75 150 C-181 146.74 -178.44 145.01 -174.62 143.12 C-169.22 140.42 -166.02 137.04 -162.18 132.43 C-160.09 130.1 -158.05 128.43 -155.5 126.62 C-150.56 123.02 -147.33 118.42 -143.85 113.48 C-142 111 -142 111 -140 110 C-133.99 109.94 -129.69 111.08 -125 115 C-122.24 117.84 -121.09 119.38 -120.54 123.34 C-120.57 124.53 -120.6 125.71 -120.62 126.94 C-120.64 128.12 -120.65 129.31 -120.66 130.53 C-121 134 -121.84 136.73 -123 140 C-123.56 143.02 -124 146.05 -124.44 149.1 C-124.99 151.95 -125.9 154.33 -127 157 C-127.34 158.95 -127.34 158.95 -127.69 160.94 C-128.73 166.09 -131.13 170.51 -133.7 175.04 C-135.26 177.92 -136.04 179.62 -135.71 182.92 C-135.47 183.61 -135.24 184.29 -135 185 C-129.17 184.52 -125.01 182.06 -120.06 179.19 C-119.29 178.75 -118.52 178.31 -117.72 177.86 C-114.82 176.21 -111.92 174.55 -109.05 172.84 C-105.79 170.91 -102.79 169.44 -99.12 168.5 C-90.39 166.25 -83.27 162.12 -76.06 156.81 C-74.57 155.73 -73.09 154.66 -71.6 153.58 C-70.95 153.11 -70.31 152.64 -69.64 152.15 C-64.73 148.71 -59 149.61 -53.27 150.36 C-42.04 152.66 -31.74 158.78 -22.31 165.12 C-16.47 168.79 -9.71 170.42 -3.1 172.2 C3.01 173.96 7.23 176.29 12.03 180.5 C14.09 182.07 15.44 182.69 18 183 C19.96 182.04 19.96 182.04 21 180 C21.47 177.1 21.47 177.1 20 174 C17.9 172.2 17.9 172.2 15.44 170.5 C11.09 167.37 11.09 167.37 10.25 163.81 C11 161 11 161 12.56 159.06 C14.3 157.02 14.3 157.02 13.88 154.06 C13.61 152.7 13.31 151.35 13 150 C12.67 148.43 12.67 148.43 12.32 146.83 C11.01 140.56 11.01 140.56 8.95 134.5 C6.67 128.49 6.26 121.43 8.12 115.31 C10.33 112.59 11.66 111.96 15 111 C21.25 111.74 26.36 113.74 31 118 C32.24 118.74 33.49 119.47 34.75 120.19 C39.05 122.81 42.31 126.14 45.79 129.75 C47.74 131.74 49.74 133.53 51.88 135.31 C55.14 138.11 58 141.13 60.87 144.34 C66.84 150.92 73.06 157.22 79.35 163.48 C81.2 165.32 83.04 167.17 84.88 169.02 C90.24 174.38 95.6 179.64 101.37 184.56 C103.92 186.81 106.12 189.27 108.38 191.81 C116.97 201.46 116.97 201.46 126.59 210.02 C128.9 211.92 130.47 213.7 132.19 216.12 C133.72 218.27 135.13 220.13 137 222 C140.47 222.54 142.91 222.69 145.95 220.76 C148.81 218.35 150.91 216.14 153 213 C154.32 213.33 155.64 213.66 157 214 C159.47 211.03 159.47 211.03 162 208 C161.34 208 160.68 208 160 208 C160.93 206.39 161.87 204.79 162.81 203.19 C163.33 202.29 163.86 201.4 164.39 200.48 C165.79 198.33 167.11 196.71 169 195 C168.67 196.65 168.34 198.3 168 200 C168.66 199.3 169.32 198.6 170 197.88 C173.79 194.07 178.18 190.41 183 188 C183 187.34 183 186.68 183 186 C182.34 186 181.68 186 181 186 C192.94 169.81 192.94 169.81 202.12 164.69 C205.4 162.74 206.73 161.05 208.38 157.62 C211.2 151.88 215.74 149.37 221 146 C226.57 142.18 228.64 138.94 230.83 132.59 C232.57 128.73 235.33 126.08 238.23 123.05 C240.38 120.56 241.34 118.22 242 115 C241.67 114.67 241.34 114.34 241 114 C239.76 114 238.52 114 237.25 114 C232.47 113.52 228.93 111.5 225 108.88 C224.42 108.51 223.85 108.14 223.25 107.77 C219.99 105.46 219.06 104.28 218.25 100.32 C218.13 98.68 218.13 98.68 218 97 C215.44 94.44 214.24 94.72 210.69 94.56 C205.02 94.13 202.12 92.81 197.81 89.12 C195.37 87.28 193.29 86.11 190.56 84.81 C180.63 80 166.91 73.16 160.94 63.75 C159.19 60.66 159.19 60.66 155.5 60 C152 59 152 59 149.56 55.88 C149.05 54.93 148.53 53.98 148 53 C144.97 53.51 141.99 54 139 54.75 C135.03 55.08 133.31 54.18 130 52 C129.11 50.99 128.26 49.94 127.44 48.88 C125.32 45.88 125.32 45.88 122.62 45.19 C121.76 45.13 120.89 45.06 120 45 C114.95 44.42 110.43 43.32 105.62 41.69 C104.97 41.47 104.31 41.24 103.64 41.01 C99.32 39.53 95.17 37.82 91.03 35.91 C85.53 33.44 80.57 31.93 74.52 31.66 C67.67 31.14 61.55 29.34 55.06 27.19 C53.97 26.84 52.87 26.5 51.74 26.15 C46.3 24.38 42.4 22.72 38 19 C35.44 18.59 35.44 18.59 32.88 18.88 C28.29 19.2 28.29 19.2 25 17 C22.75 16.98 22.75 16.98 20.31 17.25 C14.98 17.4 12.87 15.71 8.95 12.34 C5.56 10 3.01 10.47 -1 11 C-1.94 11.5 -1.94 11.5 -2.89 12 C-6.98 13.94 -11.6 13.7 -16 13 C-18.25 10.5 -18.25 10.5 -20 8 C-23.54 7.33 -23.54 7.33 -27 8 C-27.65 8.74 -27.65 8.74 -28.3 9.5 C-31.92 12.7 -38 11.52 -42.6 11.5 C-44.66 11.5 -46.72 11.54 -48.78 11.59 C-55.73 11.6 -60.94 11.54 -66.53 7.14 C-68.06 5.8 -68.06 5.8 -70.62 5.31 C-73.4 6.12 -73.84 6.89 -75.62 9.06 Z " fill="#1C192F" transform="translate(700,152)"/>
<path d="M0 0 C10.93 10.42 17.05 24.14 17.5 39.2 C17.31 52.95 11.52 64.87 2.38 74.94 C-6.55 83.35 -17.85 88.27 -30.08 88.42 C-37.9 89.83 -43.59 97.53 -48.92 102.89 C-49.94 103.92 -50.97 104.94 -51.99 105.97 C-54.76 108.74 -57.53 111.52 -60.3 114.3 C-63.19 117.2 -66.09 120.11 -68.99 123.01 C-74.48 128.5 -79.96 134 -85.44 139.5 C-91.68 145.76 -97.93 152.02 -104.17 158.27 C-117.02 171.14 -129.85 184.01 -142.69 196.89 C-143.68 196.56 -144.67 196.23 -145.69 195.89 C-146.02 185 -146.35 174.11 -146.69 162.89 C-150.65 162.29 -150.65 162.29 -154.68 161.68 C-157.27 161.29 -159.85 160.89 -162.43 160.49 C-164.21 160.22 -165.99 159.95 -167.77 159.68 C-170.35 159.29 -172.92 158.9 -175.5 158.5 C-176.28 158.38 -177.07 158.26 -177.87 158.15 C-183.38 157.28 -188.45 155.77 -193.69 153.89 C-189.1 148.32 -184.14 143.27 -178.97 138.24 C-177.46 136.77 -175.95 135.3 -174.45 133.82 C-172.82 132.23 -171.2 130.65 -169.57 129.06 C-165.54 125.12 -161.52 121.17 -157.51 117.21 C-156.92 116.63 -156.34 116.06 -155.74 115.46 C-153.33 113.09 -150.92 110.71 -148.51 108.33 C-141.7 101.61 -134.88 94.9 -128.02 88.22 C-122.55 82.9 -117.12 77.56 -111.71 72.18 C-108.85 69.35 -105.98 66.53 -103.08 63.73 C-86.1 47.81 -86.1 47.81 -80.69 25.89 C-78.37 18.29 -74.93 11.85 -69.69 5.89 C-69.11 5.21 -68.54 4.53 -67.95 3.84 C-50.31 -15.52 -19.9 -15.62 0 0 Z " fill="#5FB8A6" transform="translate(1047.6875,232.109375)"/>
<path d="M0 0 C1.01 -0.01 2.03 -0.03 3.07 -0.04 C15.47 0.12 25.58 5.44 34.56 13.81 C42.13 21.78 47.3 32.24 48.57 43.13 C49.88 53.04 53.96 58.46 61.21 65.34 C62.28 66.41 63.35 67.48 64.42 68.55 C67.31 71.43 70.23 74.27 73.16 77.1 C76.22 80.07 79.25 83.09 82.29 86.1 C88.03 91.79 93.8 97.45 99.58 103.09 C108.08 111.39 116.54 119.74 124.99 128.09 C126.24 129.32 127.49 130.55 128.73 131.78 C129.34 132.39 129.95 132.99 130.58 133.61 C134.2 137.18 137.83 140.74 141.46 144.3 C143.72 146.5 145.97 148.71 148.22 150.92 C149.26 151.94 150.31 152.97 151.36 153.99 C152.79 155.38 154.21 156.77 155.64 158.17 C156.84 159.34 156.84 159.34 158.06 160.54 C159.88 162.56 159.88 162.56 160.88 165.56 C159.29 167.15 157.45 167.05 155.27 167.39 C154.29 167.55 153.32 167.71 152.32 167.87 C150.74 168.12 150.74 168.12 149.12 168.38 C140.73 169.74 132.36 171.17 124 172.75 C122.66 173 122.66 173 121.3 173.26 C120.48 173.41 119.66 173.57 118.82 173.73 C118.1 173.87 117.39 174 116.65 174.15 C114.78 174.51 114.78 174.51 112.88 175.56 C112.54 186.12 112.22 196.68 111.88 207.56 C107.71 204.78 104.78 202.72 101.38 199.3 C100.53 198.45 99.69 197.61 98.82 196.74 C97.91 195.82 97 194.91 96.06 193.96 C95.08 192.98 94.1 191.99 93.12 191.01 C91.01 188.91 88.91 186.79 86.81 184.68 C83.49 181.34 80.17 178.01 76.84 174.67 C71.58 169.4 66.33 164.13 61.07 158.85 C51.66 149.39 42.24 139.94 32.82 130.49 C29.51 127.18 26.21 123.86 22.9 120.54 C20.85 118.48 18.8 116.42 16.74 114.36 C15.34 112.94 13.93 111.53 12.53 110.11 C11.69 109.27 10.85 108.44 9.99 107.57 C8.9 106.48 8.9 106.48 7.79 105.36 C5.8 103.39 5.8 103.39 2.88 101.56 C2.88 100.9 2.88 100.24 2.88 99.56 C1.69 99.54 1.69 99.54 0.49 99.52 C-14.68 98.86 -27.75 92.82 -38.54 82.18 C-48.69 70.34 -51.24 56.78 -50.12 41.56 C-49.18 37.36 -47.81 33.52 -46.12 29.56 C-45.85 28.85 -45.57 28.13 -45.29 27.39 C-41.17 17.88 -33.07 10.49 -24.12 5.56 C-23.34 5.08 -22.55 4.59 -21.73 4.09 C-14.62 0.36 -7.93 0.07 0 0 Z " fill="#5FB8A6" transform="translate(264.125,221.4375)"/>
<path d="M0 0 C0.84 -0 1.68 -0.01 2.54 -0.01 C7 -0.03 11.45 -0.05 15.91 -0.06 C19.51 -0.07 23.11 -0.09 26.71 -0.12 C78.24 -0.57 129.06 6.94 178 23.49 C180.41 24.29 182.82 25.05 185.25 25.81 C239.66 43.04 291.69 73.44 335.55 109.64 C336.19 110.16 336.82 110.68 337.48 111.22 C338.41 111.99 338.41 111.99 339.36 112.77 C341.24 114.24 343.19 115.52 345.19 116.81 C348.24 119.24 348.24 119.24 349 121.77 C348.93 122.61 348.87 123.44 348.8 124.3 C348.76 125.14 348.72 125.97 348.68 126.84 C348.23 129.29 347.47 131.08 346.24 133.24 C345.91 132.25 345.58 131.26 345.24 130.24 C343.92 129.55 342.59 128.88 341.24 128.24 C339.73 126.94 338.25 125.61 336.8 124.24 C331.5 119.38 325.91 114.98 320.16 110.68 C318.82 109.67 317.49 108.67 316.16 107.66 C304.42 98.73 292.31 90.61 279.78 82.83 C277.46 81.37 275.16 79.9 272.86 78.42 C264.67 73.15 256.34 68.54 247.56 64.35 C244.96 63.1 242.38 61.84 239.79 60.58 C183.64 33.28 123.48 16.23 61.24 11.24 C60.19 11.14 59.15 11.05 58.07 10.95 C12.27 7.11 -34.92 10.21 -79.76 20.24 C-81.04 20.52 -82.32 20.8 -83.65 21.1 C-125.62 30.47 -166.58 45.48 -204.76 65.24 C-205.37 65.56 -205.99 65.87 -206.63 66.2 C-219.64 72.94 -232.59 80.02 -244.47 88.62 C-246.83 90.29 -249.24 91.79 -251.7 93.3 C-265.68 102.11 -278.66 112.51 -291.24 123.2 C-291.83 123.7 -292.43 124.21 -293.04 124.73 C-294.2 125.71 -295.36 126.7 -296.52 127.7 C-300.54 131.13 -300.54 131.13 -302.76 132.24 C-303.42 131.91 -304.08 131.58 -304.76 131.24 C-305.39 128.3 -305.39 128.3 -305.88 124.68 C-306.05 123.48 -306.22 122.28 -306.39 121.05 C-306.57 119.66 -306.57 119.66 -306.76 118.24 C-305.44 118.24 -304.12 118.24 -302.76 118.24 C-300.37 116.68 -300.37 116.68 -297.95 114.49 C-296.5 113.26 -296.5 113.26 -295.02 112.01 C-294.23 111.34 -294.23 111.34 -293.43 110.65 C-290.43 108.12 -287.38 105.64 -284.32 103.18 C-283.46 102.47 -283.46 102.47 -282.59 101.75 C-276.92 97.17 -270.85 93.24 -264.76 89.24 C-263.64 88.5 -262.53 87.76 -261.42 87.01 C-246.88 77.31 -232.3 67.83 -216.96 59.44 C-214.96 58.35 -212.97 57.24 -210.98 56.12 C-148.25 21.32 -71.81 0.3 0 0 Z " fill="#2C5E6F" transform="translate(617.7578125,139.76171875)"/>
<path d="M0 0 C0 0.66 0 1.32 0 2 C0.9 2.39 0.9 2.39 1.82 2.79 C4.18 4.1 5.27 5.27 6.88 7.42 C7.4 8.11 7.93 8.8 8.47 9.51 C9.01 10.25 9.56 10.99 10.12 11.75 C10.7 12.52 11.28 13.28 11.87 14.07 C13.59 16.37 15.3 18.68 17 21 C17.46 21.62 17.91 22.24 18.39 22.88 C32.69 42.37 45.48 62.76 57 84 C57.45 84.82 57.9 85.64 58.36 86.49 C65.71 100 72.16 113.77 78 128 C78.41 129 78.82 130 79.25 131.03 C94.6 168.81 105.32 208.3 110.69 248.74 C110.91 250.33 111.14 251.92 111.38 253.5 C114.43 273.72 114.47 293.82 114.39 314.22 C114.37 318.98 114.38 323.74 114.4 328.49 C114.47 349.2 114.06 369.48 111 390 C110.77 391.61 110.55 393.22 110.32 394.83 C109.72 398.96 109.04 403.07 108.31 407.19 C108.12 408.27 108.12 408.27 107.93 409.37 C101.19 447.85 89.77 485.28 74 521 C73.34 522.52 73.34 522.52 72.66 524.07 C64.65 542.39 55.59 560.04 45 577 C44.49 577.81 43.99 578.63 43.47 579.46 C35.07 592.95 26.28 606.1 17 619 C16.52 619.67 16.04 620.34 15.55 621.03 C10.17 628.5 10.17 628.5 8 631 C7.34 631 6.68 631 6 631 C2.06 627.06 2.06 627.06 1 625 C1.17 620.36 3.46 617.76 6.31 614.25 C7.23 613.1 8.14 611.94 9.05 610.79 C9.53 610.17 10.01 609.56 10.51 608.93 C19.09 597.81 26.78 586.04 34 574 C34.65 572.92 34.65 572.92 35.31 571.82 C60.58 529.48 79.55 483.99 91 436 C91.25 434.96 91.5 433.91 91.76 432.84 C95.08 418.74 97.68 404.58 99.75 390.25 C99.85 389.56 99.95 388.88 100.06 388.17 C103.41 365.06 104.41 342.03 104.38 318.69 C104.37 317.67 104.37 317.67 104.37 316.63 C104.37 294.82 103.42 273.57 100 252 C99.71 250.01 99.43 248.03 99.15 246.04 C92.55 199.4 78.87 152.34 58 110 C57.69 109.36 57.37 108.72 57.05 108.06 C52.25 98.26 47.28 88.55 42 79 C41.66 78.38 41.32 77.76 40.96 77.13 C27.97 53.86 12.46 31.82 -4.31 11.13 C-6.66 8.17 -8.84 5.11 -11 2 C-8.08 -0.92 -3.79 -1.9 0 0 Z " fill="#2B5D6E" transform="translate(1024,320)"/>
<path d="M0 0 C3.96 0.33 7.92 0.66 12 1 C12.5 2.49 12.5 2.49 13 4 C12.43 4.62 11.86 5.23 11.28 5.87 C6.24 11.4 1.46 16.99 -3 23 C-3.69 23.93 -3.69 23.93 -4.39 24.88 C-11.84 34.96 -18.93 45.23 -25.62 55.83 C-26.63 57.42 -27.64 59 -28.66 60.58 C-44.98 85.99 -57.75 113.02 -69 141 C-69.33 141.8 -69.66 142.61 -70 143.44 C-75.02 155.75 -79.14 168.28 -83 181 C-83.26 181.85 -83.52 182.7 -83.79 183.57 C-93.61 215.58 -98.99 248.71 -102 282 C-102.1 283.03 -102.19 284.05 -102.29 285.11 C-103.26 296.64 -103.24 308.19 -103.25 319.75 C-103.25 320.85 -103.25 321.96 -103.25 323.1 C-103.23 342.22 -102.42 361.03 -100 380 C-99.83 381.3 -99.67 382.61 -99.5 383.95 C-95.34 415.62 -88.27 446.75 -78 477 C-77.63 478.1 -77.25 479.21 -76.87 480.35 C-72.01 494.61 -66.46 508.39 -60 522 C-59.31 523.46 -59.31 523.46 -58.61 524.95 C-48.53 546.39 -38.01 567.19 -25 587 C-24.25 588.15 -23.5 589.31 -22.75 590.46 C-12.18 607.93 -12.18 607.93 2 622 C1.59 626.83 -0.46 628.83 -4 632 C-7.48 630.84 -8.08 629.93 -10.22 627.05 C-11.15 625.82 -11.15 625.82 -12.09 624.56 C-12.74 623.68 -13.39 622.79 -14.06 621.88 C-15.07 620.51 -15.07 620.51 -16.1 619.12 C-21.66 611.57 -26.94 603.89 -32 596 C-32.46 595.29 -32.92 594.58 -33.39 593.85 C-70.21 536.96 -95.97 472.87 -107.25 405.94 C-107.37 405.24 -107.49 404.54 -107.61 403.82 C-108.5 398.56 -109.27 393.28 -110 388 C-110.13 387.08 -110.27 386.16 -110.4 385.22 C-113.17 365.7 -113.5 346.38 -113.45 326.71 C-113.44 323.25 -113.44 319.79 -113.47 316.34 C-113.66 286.41 -111.71 257.04 -105.88 227.62 C-105.73 226.89 -105.59 226.15 -105.44 225.39 C-99.98 197.3 -92.02 169.8 -82 143 C-81.65 142.06 -81.3 141.13 -80.94 140.16 C-64.82 97.41 -41.55 57.58 -14.62 20.81 C-14.07 20.05 -13.51 19.28 -12.93 18.49 C-9.64 14.04 -6.19 9.87 -2.4 5.83 C-0.68 3.83 -0.68 3.83 0 0 Z " fill="#2C5E6F" transform="translate(253,319)"/>
<path d="M0 0 C3.56 1.63 6.62 3.75 9.81 6 C21.31 14.03 32.94 21.83 45 29 C45.67 29.4 46.34 29.81 47.03 30.22 C97.72 60.59 152.56 80.63 210.57 91.54 C212.21 91.85 213.86 92.18 215.5 92.52 C220.05 93.4 224.65 93.88 229.25 94.44 C230.21 94.56 231.17 94.68 232.16 94.81 C253.75 97.43 275.26 98.41 297 98.38 C298.3 98.37 299.6 98.37 300.94 98.37 C333.42 98.32 365.19 95.69 397 89 C398.07 88.78 399.13 88.56 400.23 88.34 C436.46 80.81 472.87 69.05 505.84 52.1 C508.15 50.92 510.48 49.77 512.82 48.62 C537.54 36.45 560.83 22.46 583.18 6.31 C586.11 4.2 589.06 2.1 592 0 C594.31 1.98 596.62 3.96 599 6 C596.82 10.36 595.48 11.4 591.56 14.12 C590.68 14.74 590.68 14.74 589.78 15.37 C587.53 16.93 585.27 18.46 583 20 C581.97 20.7 580.95 21.39 579.89 22.11 C576.39 24.48 572.88 26.83 569.38 29.19 C568.81 29.57 568.24 29.95 567.65 30.35 C557.26 37.32 546.73 43.74 535.48 49.22 C532.82 50.58 530.23 51.99 527.64 53.47 C514.82 60.78 501.72 66.6 488 72 C486.92 72.43 485.85 72.85 484.74 73.29 C477.19 76.28 469.61 79.17 462 82 C461.16 82.32 460.32 82.63 459.46 82.96 C409.67 101.45 356.18 108.77 303.35 108.52 C298.53 108.5 293.71 108.51 288.89 108.54 C246.17 108.71 205.29 103.2 164 92 C163.04 91.74 162.07 91.48 161.08 91.22 C130.87 83.03 100.91 71.7 73.17 57.14 C70.61 55.79 68.03 54.48 65.45 53.16 C40.14 40.17 17.15 24.49 -6 8 C-4.45 4.67 -2.69 2.51 0 0 Z " fill="#2B5D6E" transform="translate(343,1030)"/>
<path d="M0 0 C0.13 2.4 0.27 4.8 0.4 7.21 C0.44 7.96 0.49 8.7 0.53 9.47 C0.9 16.06 1.26 22.65 1.62 29.24 C1.86 33.54 2.1 37.83 2.36 42.13 C2.87 51.1 3.13 60.01 3 69 C-2.85 72.1 -8.64 74.36 -14.94 76.38 C-17.08 77.07 -19.21 77.77 -21.35 78.48 C-22.55 78.87 -23.75 79.26 -24.99 79.67 C-32.07 82.01 -39.12 84.43 -46.18 86.85 C-48.82 87.75 -51.45 88.65 -54.09 89.55 C-62 92.25 -69.9 94.96 -77.79 97.7 C-81.05 98.82 -84.31 99.95 -87.56 101.07 C-89.83 101.86 -92.1 102.65 -94.37 103.44 C-95.75 103.92 -97.12 104.39 -98.49 104.87 C-99.68 105.28 -100.87 105.69 -102.1 106.12 C-105 107 -105 107 -108 107 C-107.2 106.23 -107.2 106.23 -106.38 105.44 C-103.9 102.96 -103.9 102.96 -101.44 99.94 C-97.41 95.22 -93.02 90.88 -88.63 86.5 C-87.71 85.57 -86.78 84.65 -85.83 83.69 C-83.31 81.17 -80.79 78.66 -78.27 76.14 C-75.63 73.5 -72.99 70.86 -70.35 68.22 C-65.93 63.79 -61.5 59.36 -57.07 54.94 C-51.95 49.82 -46.83 44.7 -41.71 39.58 C-37.31 35.17 -32.91 30.77 -28.5 26.37 C-25.87 23.74 -23.25 21.11 -20.62 18.49 C-17.7 15.56 -14.78 12.64 -11.85 9.72 C-10.54 8.41 -10.54 8.41 -9.21 7.08 C-8.42 6.28 -7.62 5.49 -6.81 4.68 C-6.12 3.99 -5.42 3.3 -4.71 2.59 C-1.92 0 -1.92 0 0 0 Z " fill="#5EB7A5" transform="translate(377,465)"/>
<path d="M0 0 C6.06 5.02 11.6 10.47 17.16 16.04 C18.16 17.05 19.17 18.06 20.18 19.06 C22.89 21.77 25.6 24.49 28.31 27.21 C31.14 30.05 33.99 32.89 36.83 35.73 C42.2 41.11 47.57 46.48 52.93 51.86 C59.05 57.99 65.16 64.11 71.28 70.23 C83.86 82.82 96.43 95.41 109 108 C104.97 108 101.53 106.68 97.74 105.43 C96.48 105.02 96.48 105.02 95.2 104.6 C92.42 103.7 89.65 102.79 86.88 101.88 C84.94 101.24 83.01 100.61 81.07 99.98 C62.14 93.77 43.27 87.36 24.44 80.84 C21.81 79.94 19.18 79.04 16.54 78.14 C14.74 77.52 12.93 76.9 11.12 76.28 C10.28 75.99 9.44 75.71 8.58 75.42 C4.45 73.99 0.54 72.63 -3 70 C-4 67 -4 67 -3 64 C-2 55.16 -1.92 46.37 -2.06 37.5 C-2 34 -2 34 -1.5 31.63 C-0.97 28.83 -0.9 26.29 -0.94 23.44 C-0.95 22.39 -0.95 21.35 -0.96 20.27 C-0.97 19.19 -0.99 18.11 -1 17 C-1.03 14.85 -1.05 12.71 -1.06 10.56 C-1.07 9.62 -1.09 8.67 -1.1 7.69 C-1 5.02 -0.6 2.6 0 0 Z " fill="#5FB8A6" transform="translate(901,463)"/>
<path d="M0 0 C1 2 1 2 0.45 4.27 C0.13 5.22 -0.19 6.17 -0.52 7.14 C-0.88 8.22 -1.24 9.3 -1.6 10.4 C-2 11.58 -2.4 12.75 -2.81 13.96 C-3.22 15.18 -3.63 16.39 -4.04 17.64 C-5.13 20.9 -6.23 24.15 -7.33 27.39 C-8.42 30.62 -9.5 33.85 -10.58 37.08 C-12.26 42.08 -13.95 47.07 -15.65 52.05 C-17.13 56.41 -18.58 60.78 -19.98 65.17 C-20.43 66.56 -20.43 66.56 -20.89 67.98 C-21.44 69.66 -21.98 71.35 -22.49 73.05 C-24.21 78.2 -25.98 80.44 -31 83 C-33.83 84.19 -33.83 84.19 -36.75 85.15 C-37.85 85.51 -38.94 85.87 -40.06 86.25 C-41.22 86.62 -42.37 86.99 -43.56 87.38 C-45.36 87.96 -45.36 87.96 -47.2 88.56 C-57.72 91.97 -68.3 95.17 -79 98 C-79.81 98.22 -80.63 98.43 -81.46 98.65 C-83.81 99.26 -86.15 99.86 -88.5 100.44 C-89.53 100.7 -89.53 100.7 -90.59 100.97 C-94.38 101.87 -97.24 102.11 -101 101 C-96.25 95.29 -91.17 90.03 -85.92 84.79 C-85.03 83.9 -84.13 83 -83.21 82.08 C-80.78 79.64 -78.35 77.21 -75.91 74.78 C-73.36 72.23 -70.81 69.67 -68.25 67.12 C-63.97 62.84 -59.69 58.55 -55.41 54.28 C-50.45 49.33 -45.51 44.38 -40.56 39.43 C-36.3 35.17 -32.05 30.91 -27.79 26.65 C-25.25 24.12 -22.71 21.58 -20.17 19.04 C-17.35 16.21 -14.52 13.38 -11.69 10.56 C-10.85 9.72 -10.01 8.88 -9.15 8.01 C-8.38 7.24 -7.61 6.48 -6.81 5.69 C-6.15 5.02 -5.48 4.35 -4.79 3.66 C-3 2 -3 2 0 0 Z " fill="#5FB8A6" transform="translate(563,278)"/>
<path d="M0 0 C0.66 0 1.32 0 2 0 C3.4 1.42 3.4 1.42 5.04 3.41 C9.23 8.33 13.75 12.86 18.33 17.41 C19.73 18.8 21.12 20.19 22.51 21.58 C24 23.06 25.48 24.53 26.96 26.01 C30.06 29.09 33.16 32.17 36.25 35.26 C45.05 44.03 53.85 52.79 62.65 61.55 C67.53 66.41 72.4 71.26 77.26 76.12 C80.34 79.19 83.42 82.25 86.51 85.32 C88.87 87.66 91.22 90.01 93.57 92.36 C94.43 93.21 95.29 94.06 96.18 94.94 C96.95 95.71 97.72 96.49 98.52 97.28 C99.19 97.96 99.87 98.63 100.57 99.32 C102 101 102 101 102 103 C93.94 101.81 86.2 100.13 78.38 97.88 C76.78 97.42 76.78 97.42 75.16 96.96 C67.15 94.66 59.16 92.29 51.19 89.88 C50.15 89.56 49.1 89.25 48.03 88.93 C45 88 42 87.01 39 86 C37.92 85.67 36.83 85.34 35.71 85 C27.98 82.32 27.98 82.32 25.56 79.04 C24.46 76.4 23.73 73.77 23 71 C22.37 69.11 21.73 67.23 21.08 65.35 C19.83 61.7 18.64 58.04 17.44 54.38 C16.38 51.17 15.32 47.98 14.26 44.78 C13.99 43.97 13.73 43.16 13.45 42.33 C11.59 36.75 9.7 31.18 7.77 25.63 C7.51 24.89 7.26 24.15 6.99 23.39 C5.77 19.86 4.54 16.34 3.3 12.82 C2.86 11.55 2.42 10.29 1.98 9.03 C1.41 7.38 1.41 7.38 0.82 5.71 C0 3 0 3 0 0 Z " fill="#5EB7A5" transform="translate(715,277)"/>
<path d="M0 0 C0.66 0.33 1.32 0.66 2 1 C-5.26 8.26 -12.52 15.52 -20 23 C-20 18.43 -17.86 15.48 -15 12 C-12.82 10.31 -10.58 8.89 -8.23 7.45 C-5.01 5.35 -2.61 2.81 0 0 Z " fill="#1B172E" transform="translate(357,840)"/>
<path d="M0 0 C0.66 0.33 1.32 0.66 2 1 C-1.63 4.63 -5.26 8.26 -9 12 C-9 8.19 -7.99 6.23 -6 3 C-3.38 1.69 -3.38 1.69 -1 1 C-0.67 0.67 -0.34 0.34 0 0 Z " fill="#1B172E" transform="translate(379,818)"/>
<path d="M0 0 C2.38 0.25 2.38 0.25 5 1 C7.42 4.12 7.17 7.17 7 11 C4.04 7.53 1.92 4.13 0 0 Z " fill="#1B172E" transform="translate(430,748)"/>
<path d="M0 0 C1.32 0 2.64 0 4 0 C3.47 3.82 2.5 6.06 0 9 C-1.12 6.75 -1.12 6.75 -2 4 C-1.12 1.69 -1.12 1.69 0 0 Z " fill="#1B172E" transform="translate(853,728)"/>
<path d="M0 0 C0.58 0.22 1.17 0.44 1.77 0.66 C0.48 1.67 -0.81 2.67 -2.11 3.66 C-3.18 4.5 -3.18 4.5 -4.29 5.35 C-6.23 6.66 -6.23 6.66 -8.23 6.66 C-8.89 7.98 -9.55 9.3 -10.23 10.66 C-10.15 7.83 -9.62 6.11 -7.75 3.96 C-2.93 -0.44 -2.93 -0.44 0 0 Z " fill="#1B172E" transform="translate(313.23046875,507.3359375)"/>
</svg>
